<?xml version="1.0" encoding="UTF-8" standalone="no"?>
<!-- Created with Inkscape (http://www.inkscape.org/) -->

<svg
   xmlns:dc="http://purl.org/dc/elements/1.1/"
   xmlns:cc="http://creativecommons.org/ns#"
   xmlns:rdf="http://www.w3.org/1999/02/22-rdf-syntax-ns#"
   xmlns:svg="http://www.w3.org/2000/svg"
   xmlns="http://www.w3.org/2000/svg"
   xmlns:sodipodi="http://sodipodi.sourceforge.net/DTD/sodipodi-0.dtd"
   xmlns:inkscape="http://www.inkscape.org/namespaces/inkscape"
   width="2754.0901"
   height="1031.36"
   id="svg5851"
   version="1.1"
   inkscape:version="0.48.5 r10040"
   sodipodi:docname="New document 16">
  <defs
     id="defs5853" />
  <sodipodi:namedview
     id="base"
     pagecolor="#ffffff"
     bordercolor="#666666"
     borderopacity="1.0"
     inkscape:pageopacity="0.0"
     inkscape:pageshadow="2"
     inkscape:zoom="0.35"
     inkscape:cx="1632.1888"
     inkscape:cy="520"
     inkscape:document-units="px"
     inkscape:current-layer="layer1"
     showgrid="false"
     inkscape:window-width="1218"
     inkscape:window-height="676"
     inkscape:window-x="195"
     inkscape:window-y="0"
     inkscape:window-maximized="0" />
  <metadata
     id="metadata5856">
    <rdf:RDF>
      <cc:Work
         rdf:about="">
        <dc:format>image/svg+xml</dc:format>
        <dc:type
           rdf:resource="http://purl.org/dc/dcmitype/StillImage" />
        <dc:title></dc:title>
      </cc:Work>
    </rdf:RDF>
  </metadata>
  <g
     inkscape:label="Layer 1"
     inkscape:groupmode="layer"
     id="layer1"
     transform="translate(0,-20.987528)">
    <path
       sodipodi:type="arc"
       style="fill:#000000;fill-opacity:1;stroke-width:0.2;stroke-linecap:round;stroke-linejoin:miter;stroke-miterlimit:4;stroke-dasharray:none"
       id="path3142"
       sodipodi:cx="300.78079"
       sodipodi:cy="294.98499"
       sodipodi:rx="295.01501"
       sodipodi:ry="295.01501"
       d="m 595.79581,294.98499 a 295.01501,295.01501 0 1 1 -0.10303,-7.7959"
       transform="matrix(1.7438638,0,0,-1.7445044,-3.5451529,1052.7591)"
       sodipodi:start="0"
       sodipodi:end="6.2567568"
       sodipodi:open="true" />
    <path
       sodipodi:type="arc"
       style="fill:#4d4d4d;fill-opacity:1;stroke-width:13.80000019;stroke-linecap:round;stroke-linejoin:miter;stroke-miterlimit:4;stroke-dasharray:none"
       id="path3142-4"
       sodipodi:cx="300.78079"
       sodipodi:cy="294.98499"
       sodipodi:rx="295.01501"
       sodipodi:ry="295.01501"
       d="m 595.79581,294.98499 a 295.01501,295.01501 0 1 1 -0.10303,-7.7959"
       transform="matrix(1.7438638,0,0,-1.7445044,241.21345,1054.8441)"
       sodipodi:start="0"
       sodipodi:end="6.2567568"
       sodipodi:open="true"
       inkscape:transform-center-x="335.15698"
       inkscape:transform-center-y="-93.878479" />
    <path
       sodipodi:type="arc"
       style="fill:#666666;fill-opacity:1;stroke-width:13.80000019;stroke-linecap:round;stroke-linejoin:miter;stroke-miterlimit:4;stroke-dasharray:none"
       id="path3142-4-5"
       sodipodi:cx="300.78079"
       sodipodi:cy="294.98499"
       sodipodi:rx="295.01501"
       sodipodi:ry="295.01501"
       d="m 595.79581,294.98499 a 295.01501,295.01501 0 1 1 -0.10303,-7.7959"
       transform="matrix(1.7438638,0,0,1.7445044,485.97204,28.583092)"
       sodipodi:start="0"
       sodipodi:end="6.2567568"
       sodipodi:open="true"
       inkscape:transform-center-x="491.12113"
       inkscape:transform-center-y="-93.956145" />
    <path
       sodipodi:type="arc"
       style="fill:#808080;fill-opacity:1;stroke-width:13.80000019;stroke-linecap:round;stroke-linejoin:miter;stroke-miterlimit:4;stroke-dasharray:none"
       id="path3142-4-5-0"
       sodipodi:cx="300.78079"
       sodipodi:cy="294.98499"
       sodipodi:rx="295.01501"
       sodipodi:ry="295.01501"
       d="m 595.79581,294.98499 a 295.01501,295.01501 0 1 1 -0.10303,-7.7959"
       transform="matrix(1.7438638,0,0,1.7445044,730.73063,25.230295)"
       sodipodi:start="0"
       sodipodi:end="6.2567568"
       sodipodi:open="true"
       inkscape:transform-center-x="719.66264"
       inkscape:transform-center-y="94.033921" />
    <path
       sodipodi:type="arc"
       style="fill:#999999;fill-opacity:1;stroke-width:13.80000019;stroke-linecap:round;stroke-linejoin:miter;stroke-miterlimit:4;stroke-dasharray:none"
       id="path3142-4-5-0-9"
       sodipodi:cx="300.78079"
       sodipodi:cy="294.98499"
       sodipodi:rx="295.01501"
       sodipodi:ry="295.01501"
       d="m 595.79581,294.98499 a 295.01501,295.01501 0 1 1 -0.10303,-7.7959"
       transform="matrix(1.7438638,0,0,1.7445044,975.48919,28.583092)"
       sodipodi:start="0"
       sodipodi:end="6.2567568"
       sodipodi:open="true"
       inkscape:transform-center-x="1054.5551"
       inkscape:transform-center-y="-94.111759" />
    <path
       sodipodi:type="arc"
       style="fill:#b3b3b3;fill-opacity:1;stroke-width:13.80000019;stroke-linecap:round;stroke-linejoin:miter;stroke-miterlimit:4;stroke-dasharray:none"
       id="path3142-4-5-0-3"
       sodipodi:cx="300.78079"
       sodipodi:cy="294.98499"
       sodipodi:rx="295.01501"
       sodipodi:ry="295.01501"
       d="m 595.79581,294.98499 a 295.01501,295.01501 0 1 1 -0.10303,-7.7959"
       transform="matrix(1.7438638,0,0,1.7445044,1220.2478,25.230295)"
       sodipodi:start="0"
       sodipodi:end="6.2567568"
       sodipodi:open="true"
       inkscape:transform-center-x="1054.5552"
       inkscape:transform-center-y="-94.111758" />
    <path
       sodipodi:type="arc"
       style="fill:#e6e6e6;fill-opacity:1;stroke-width:13.80000019;stroke-linecap:round;stroke-linejoin:miter;stroke-miterlimit:4;stroke-dasharray:none"
       id="path3142-4-5-0-2"
       sodipodi:cx="300.78079"
       sodipodi:cy="294.98499"
       sodipodi:rx="295.01501"
       sodipodi:ry="295.01501"
       d="m 595.79581,294.98499 a 295.01501,295.01501 0 1 1 -0.10303,-7.7959"
       transform="matrix(1.7438638,0,0,1.7445044,1465.0063,31.935891)"
       sodipodi:start="0"
       sodipodi:end="6.2567568"
       sodipodi:open="true"
       inkscape:transform-center-x="1054.5552"
       inkscape:transform-center-y="-94.111758" />
    <path
       sodipodi:type="arc"
       style="fill:#f2f2f2;fill-opacity:1;stroke-width:13.80000019;stroke-linecap:round;stroke-linejoin:miter;stroke-miterlimit:4;stroke-dasharray:none"
       id="path3142-4-5-0-2-4"
       sodipodi:cx="300.78079"
       sodipodi:cy="294.98499"
       sodipodi:rx="295.01501"
       sodipodi:ry="295.01501"
       d="m 595.79581,294.98499 a 295.01501,295.01501 0 1 1 -0.10303,-7.7959"
       transform="matrix(1.7438638,0,0,1.7445044,1709.765,17.744913)"
       sodipodi:start="0"
       sodipodi:end="6.2567568"
       sodipodi:open="true"
       inkscape:transform-center-x="1054.5552"
       inkscape:transform-center-y="-94.111758" />
    <path
       style="fill:#ffffff;fill-opacity:1;stroke-width:13.80000019;stroke-linecap:round;stroke-linejoin:miter;stroke-miterlimit:4;stroke-dasharray:none"
       id="path3288"
       d="m 148.38838,58.642098 c 32.33128,32.706091 70.96411,56.146182 112.94925,71.794212 12.22665,4.55697 24.80874,7.9484 37.21319,11.92254 65.13927,14.99502 132.51732,16.96949 197.80968,1.76874 9.58055,-2.23044 18.9196,-5.50837 28.37939,-8.2625 7.54588,-3.23297 29.45346,-14.42771 22.63771,-9.69894 -96.3404,66.84079 -47.91466,30.49746 -36.4769,14.04395 3.50713,-5.04502 6.56396,-10.55118 8.66508,-16.41693 5.71092,-15.94334 3.3462,-16.07665 -0.9207,-30.810127 -4.01573,-3.815235 -7.12721,-9.126361 -12.04714,-11.445749 -15.06053,-7.100145 -38.56893,-5.024964 -53.13794,-0.989939 -13.38563,3.707313 -25.6013,11.249059 -38.77858,15.724365 -4.83965,1.643681 17.45186,-10.797679 13.66158,-7.193974 -17.18395,16.338124 -36.10951,30.468664 -54.16427,45.702964 -99.47366,98.22367 -182.71321,215.31698 -238.78316,347.33364 -10.3525,24.37507 -18.56029,49.72138 -27.84043,74.58199 -6.18401,24.41856 -14.097022,48.41293 -18.551957,73.25552 -15.383065,85.78304 -6.490172,182.10706 41.469967,255.50319 11.83082,18.10534 27.79893,32.70173 41.69845,49.05261 49.83638,34.02173 65.30866,52.98596 128.08437,59.46492 29.51946,3.04664 59.49601,-0.0866 88.87714,-4.39182 67.28315,-9.85878 126.87424,-31.92383 189.29428,-59.62962 30.33022,-13.4624 59.51015,-29.69749 89.26528,-44.54619 26.20814,-15.54712 52.89911,-30.20379 78.62436,-46.64139 3.96849,-2.53573 6.43834,-7.14871 10.15518,-10.08581 16.04672,-12.68055 32.85885,-24.22766 49.04925,-36.69907 32.32292,-24.89837 34.83333,-27.72206 63.00864,-52.24732 0,0 68.3492,-29.25274 68.3492,-29.25274 l 0,0 c -98.12246,82.88516 -204.67953,153.38656 -315.95986,214.56193 -29.67154,14.55103 -58.78692,30.46605 -89.0146,43.65309 -63.79835,27.83254 -123.6488,49.68096 -192.25625,59.58316 -30.6811,4.4283 -61.9556,7.8786 -92.77678,4.7445 -64.38126,-6.5469 -81.25515,-26.5215 -132.45199,-61.21265 C 100.11117,954.99005 83.671292,939.98005 71.49393,921.35276 22.3416,846.16623 13.624769,747.75571 29.78628,660.02779 34.432536,634.80693 42.484458,610.43641 48.833552,585.64066 58.322562,560.45571 66.763354,534.79296 77.300507,510.08579 133.36684,378.62321 215.19049,261.16679 312.51773,161.21466 381.90679,99.332281 369.75328,104.90874 471.39652,49.043142 499.35666,33.675554 542.0805,21.260266 572.46396,38.164567 c 5.9346,3.301839 9.66143,9.878969 14.49218,14.818454 1.85662,5.935731 5.03845,11.57611 5.56985,17.807331 1.06789,12.522007 -4.43029,27.083434 -10.39452,37.347908 -24.65146,42.42526 -74.22527,60.64898 -116.97557,76.31449 -9.27877,2.30735 -18.4668,5.07737 -27.83621,6.92204 -65.9343,12.98157 -133.50916,9.94685 -198.85624,-5.28918 -12.67324,-4.05715 -25.51394,-7.56172 -38.0197,-12.1714 -43.62703,-16.08094 -83.39403,-40.3738 -119.89803,-70.30177 0,0 67.84266,-44.970342 67.84266,-44.970342 z"
       inkscape:connector-curvature="0" />
    <path
       style="fill:#ffffff;fill-opacity:1;stroke-width:0.2;stroke-linecap:round;stroke-linejoin:miter;stroke-miterlimit:4;stroke-dasharray:none"
       id="path5679"
       d="m 726.19916,229.90844 c -1.54801,28.92354 0.44498,57.9222 1.10836,86.84312 0.90977,47.04736 3.34843,93.97628 4.47845,141.0177 0.60956,34.98663 1.98737,69.93911 2.63394,104.92102 0.31337,12.09766 0.34755,6.05694 -0.1004,18.12214 0,0 -58.22333,44.01946 -58.22333,44.01946 l 0,0 c 0.98904,-11.37894 0.66226,-5.49503 0.91212,-17.66019 0.35885,-35.54403 0.99718,-71.09583 0.0269,-106.63898 -1.27485,-46.77345 -3.53265,-93.43191 -5.4177,-140.14944 -1.28179,-28.34478 -3.0865,-56.61036 -4.26654,-84.94974 0,0 58.84822,-45.52509 58.84822,-45.52509 z"
       inkscape:connector-curvature="0" />
    <path
       style="fill:#ffffff;fill-opacity:1;stroke-width:0.2;stroke-linecap:round;stroke-linejoin:miter;stroke-miterlimit:4;stroke-dasharray:none"
       id="path5685"
       d="m 729.66537,298.56911 c 16.38862,-6.46668 33.04868,-11.25008 49.66172,-16.18503 17.89436,-7.47927 35.6994,-15.3186 53.91148,-20.886 14.26921,-4.00725 28.71476,-6.7601 43.20092,-8.11096 10.5895,0.88881 15.45274,14.08857 20.3503,26.52169 4.37067,9.68404 6.62726,20.98536 9.87914,31.49644 0.51524,1.71393 1.03069,3.42782 1.54604,5.14172 0,0 -57.23117,49.02534 -57.23117,49.02534 l 0,0 c -0.49731,-1.68845 -0.99461,-3.37687 -1.49193,-5.06531 -3.10709,-10.23689 -5.47167,-21.01167 -9.39949,-30.67167 -4.12639,-10.26839 -7.3445,-19.14946 -16.31799,-17.62462 -13.8851,1.21026 -27.74836,3.32729 -41.35206,7.89865 -18.01496,6.3506 -35.76381,14.17245 -53.76899,20.52717 -17.33925,5.38079 -34.73392,10.58318 -51.57611,18.98555 0,0 52.58814,-61.05297 52.58814,-61.05297 z"
       inkscape:connector-curvature="0" />
    <path
       style="fill:#ffffff;fill-opacity:1;stroke-width:0.2;stroke-linecap:round;stroke-linejoin:miter;stroke-miterlimit:4;stroke-dasharray:none"
       id="path5687"
       d="m 984.73373,279.93738 c -2.05667,43.47792 -1.8747,87.15231 -1.72846,130.72108 0.26374,39.38787 0.34571,78.78247 0.79704,118.16696 0.42145,14.19326 0.46392,28.39955 0.72663,42.59858 0,0 -57.97017,44.8459 -57.97017,44.8459 l 0,0 c 0.26209,-14.57374 0.30965,-29.15455 0.72671,-43.72291 0.44815,-39.79569 0.53425,-79.60115 0.79696,-119.40013 0.14333,-42.67439 0.38211,-85.47058 -1.72863,-128.04673 0,0 58.37992,-45.16275 58.37992,-45.16275 z"
       inkscape:connector-curvature="0" />
    <path
       style="fill:#ffffff;fill-opacity:1;stroke-width:0.2;stroke-linecap:round;stroke-linejoin:miter;stroke-miterlimit:4;stroke-dasharray:none"
       id="path5689"
       d="m 980.50638,155.39609 c -0.60034,13.47228 -0.25462,26.97966 -0.16282,40.46636 0,1.88603 0,3.77205 0,5.65817 0,0 -58.53756,45.28469 -58.53756,45.28469 l 0,0 c 0,-1.88997 0,-3.77993 0,-5.66986 0.0914,-13.40227 0.44425,-26.82759 -0.16275,-40.21426 0,0 58.8484,-45.5251 58.8484,-45.5251 z"
       inkscape:connector-curvature="0" />
    <path
       style="fill:#ffffff;fill-opacity:1;stroke-width:0.2;stroke-linecap:round;stroke-linejoin:miter;stroke-miterlimit:4;stroke-dasharray:none"
       id="path5695"
       d="m 1148.8646,310.33555 c -14.4427,-4.06229 -29.2076,-5.35593 -43.8629,-4.49681 -20.4336,2.18178 -39.0612,14.92311 -56.7476,29.63662 92.7512,-79.13233 48.1176,-48.49563 32.3993,-21.87078 -4.0296,6.82545 -4.3795,8.27641 -7.5985,15.82703 -1.2896,4.28367 -8.1648,24.06155 -5.4051,28.40247 1.4919,2.34715 10.8863,5.23995 11.7081,5.55324 31.1262,5.27427 61.6031,14.65175 91.4515,28.97382 23.6845,11.43592 45.4868,29.25607 64.5056,53.44351 10.0763,17.93278 17.516,44.34708 7.8101,66.40997 -2.1172,4.81238 -5.1922,8.47471 -7.7882,12.7121 -21.5894,19.10638 -42.8176,39.18533 -64.768,57.31921 -5.8355,4.82082 -22.3639,10.96076 -28.4054,13.04314 -14.9306,5.14645 -30.0931,8.83856 -45.2161,12.36855 -16.1818,3.71523 -32.5266,4.97727 -48.7271,8.38431 0,0 51.0877,-57.73087 51.0877,-57.73087 l 0,0 c 15.7601,-2.20489 31.5863,-3.46513 47.2423,-7.18949 19.9893,-4.90371 40.4941,-9.42271 59.6045,-20.01679 4.5372,-2.5152 17.3069,-12.82111 13.3049,-8.71577 -13.7825,14.13739 -28.529,25.97621 -42.7935,38.96425 2.7054,-3.11503 5.7417,-5.66091 8.1166,-9.345 11.0669,-17.16533 5.2088,-39.19406 -3.707,-54.90974 -17.7385,-24.04689 -38.8263,-40.52657 -61.3398,-51.97316 -12.6459,-6.16691 -17.5256,-9.03291 -30.7024,-13.41235 -20.5705,-6.837 -41.5557,-8.98263 -62.3469,-13.5563 -6.7835,-3.22392 -11.9973,-3.61661 -16.4788,-12.77309 -5.2211,-10.66788 1.8014,-25.62477 3.6287,-36.05618 17.8015,-49.43496 51.932,-68.39655 84.4216,-94.83573 18.2141,-13.9205 37.6964,-24.32159 58.2522,-25.75561 15.5552,-0.22216 31.1101,1.00755 46.5289,4.28558 0,0 -54.1747,57.31387 -54.1747,57.31387 z"
       inkscape:connector-curvature="0" />
    <g
       id="g6637"
       transform="matrix(1.2261362,0,0,1,-407.02651,-17.142857)">
      <path
         inkscape:connector-curvature="0"
         d="m 1415.7452,30.640453 c -2.5535,41.881351 -2.7286,83.972437 -3.0334,125.968487 -0.9205,61.54383 1.182,123.02643 2.6221,184.52304 1.4926,54.9672 1.9283,109.94672 1.9673,164.94348 0.155,51.40336 0.3577,102.80636 0.4649,154.20994 0.4539,44.27263 0.3233,88.54078 0.04,132.81367 -0.3969,43.12885 -0.072,86.25074 0.8552,129.36282 0.3461,16.75202 1.1182,33.48284 1.0431,50.24564 -0.022,6.38275 0,12.76562 0.021,19.14835 0,0 -56.8747,38.45152 -56.8747,38.45152 l 0,0 c 0.021,-6.3874 0.026,-12.7748 0.021,-19.1622 -0.076,-17.23195 0.711,-34.43374 1.0428,-51.65573 0.9092,-43.49939 1.2592,-87.00787 0.8603,-130.52349 -0.2791,-44.30149 -0.3914,-88.59791 0.083,-132.8988 0.1251,-51.56315 0.3742,-103.12632 0.3023,-154.68994 -0.3048,-55.04257 -0.5259,-110.09263 -1.3839,-165.12484 -1.2371,-61.579 -3.0965,-123.1522 -2.6297,-184.76703 -0.298,-40.6257 -0.4038,-81.36682 -3.0337,-121.86658 0,0 57.6539,-38.978337 57.6539,-38.978337 z"
         id="path5707"
         style="fill:#4d4d4d;fill-opacity:1;stroke-width:0.2;stroke-linecap:round;stroke-linejoin:miter;stroke-miterlimit:4;stroke-dasharray:none" />
      <path
         inkscape:connector-curvature="0"
         d="m 1059.1261,23.153509 c 16.593,28.07546 41.0693,44.695118 65.0323,59.208553 25.8428,14.784621 53.4789,19.508558 81.2884,21.688188 22.6173,3.06394 44.6324,-2.21405 66.5502,-8.941946 14.853,-4.212152 29.174,-10.526107 44.3004,-12.876582 15.362,-0.822249 30.6204,-2.686333 45.9351,-4.447351 13.8076,-1.740461 27.4422,-5.242393 41.2079,-7.617218 4.9751,-1.31454 10.0306,-0.44287 14.7553,-2.921847 0,0 -51.2471,51.693084 -51.2471,51.693084 l 0,0 c -4.842,0.45165 -9.6781,0.98325 -14.506,1.6565 -13.5197,2.03091 -26.8907,5.64038 -40.5008,6.60134 -15.4141,1.94439 -30.8544,3.28331 -46.2566,5.28708 -14.5593,3.22718 -28.6901,8.91517 -43.1956,12.53092 -22.0581,5.92905 -44.2173,9.73334 -66.7579,6.28507 -28.0962,-2.83776 -55.7239,-9.01682 -81.48,-25.07773 -25.239,-15.68695 -49.9024,-33.714891 -70.3146,-59.30073 0,0 55.189,-43.767331 55.189,-43.767331 z"
         id="path5715"
         style="fill:#4d4d4d;fill-opacity:1;stroke-width:0.2;stroke-linecap:round;stroke-linejoin:miter;stroke-miterlimit:4;stroke-dasharray:none" />
      <g
         id="g6634">
        <path
           style="fill:#4d4d4d;fill-opacity:1;stroke-width:0.2;stroke-linecap:round;stroke-linejoin:miter;stroke-miterlimit:4;stroke-dasharray:none"
           id="path5751"
           d="m 1428.7331,113.99255 c 33.3779,-22.67125 70.7627,-32.919614 107.8055,-41.946178 7.6568,-1.034483 15.2714,-2.81699 22.9711,-3.10347 24.1999,-0.900263 54.2022,5.564407 73.2952,25.516472 4.5672,4.772452 7.8981,11.091396 11.8469,16.637106 2.9402,6.52875 6.5247,12.67681 8.8199,19.58628 12.5913,37.90366 12.1511,83.51675 5.8068,122.99264 -2.0718,12.89129 -5.5016,25.39466 -8.2524,38.09202 -12.7308,45.30569 -28.2292,90.40496 -51.4644,129.26474 -12.2402,20.47124 -19.2893,27.94316 -33.6602,45.78381 -42.443,47.13238 -94.1272,78.83764 -144.4578,111.2223 -7.6283,3.63274 -14.2301,9.62184 -21.5095,14.07519 -4.1782,2.55615 -8.5118,3.84768 -12.6142,6.5528 17.8689,-12.55382 35.7377,-25.10764 53.6067,-37.66144 -0.8644,-3.00684 -2.9872,-5.52939 0.9146,-5.62682 2.4101,-0.0601 4.7982,0.58265 7.202,0.80213 11.289,1.03075 16.5629,1.1941 28.6622,1.8692 57.4663,0.21715 113.4342,19.11241 165.4603,48.44355 12.1564,6.85374 23.8172,14.96989 35.7257,22.45479 31.3829,21.75983 58.6003,49.25632 77.8987,87.12729 17.0892,33.53565 24.3294,68.8978 31.6476,106.78229 6.7692,45.40815 9.6359,91.47376 11.2036,137.53721 0.6171,9.33253 -0.6082,18.83851 0.2762,28.14509 0,0 -58.753,35.92065 -58.753,35.92065 l 0,0 c 2.4215,-9.2011 1.0706,-19.5792 2.3813,-29.00361 2.6092,-46.59455 1.4622,-93.55199 -4.8108,-139.67632 -6.6501,-37.76734 -12.9278,-71.33806 -29.5253,-104.98465 -18.3138,-37.12619 -44.3024,-64.47748 -74.6374,-86.03153 -11.6804,-7.43434 -23.0723,-15.60113 -35.0419,-22.3029 -53.6652,-30.04735 -111.6946,-44.61767 -170.626,-40.91326 -8.124,0.0937 -22.6452,0.42093 -31.4753,0.0247 -3.9023,-0.17449 -10.8996,0.25109 -14.2743,-4.00379 -1.5675,-1.97632 -4.8285,-5.80467 -3.0057,-7.41487 18.1137,-15.9984 38.6305,-27.40642 57.9457,-41.1096 11.0395,-5.09951 21.0223,-12.89321 31.7808,-18.79202 16.982,-10.43586 60.0605,-39.53684 -11.8629,11.00722 -5.9355,4.17088 11.804,-8.49459 17.544,-13.06079 19.4329,-15.45932 18.5919,-15.7084 36.7618,-34.11796 14.0826,-16.67325 22.6912,-25.70759 34.8336,-44.85759 24.1028,-38.01286 40.4993,-82.77749 53.5653,-127.89439 2.6267,-12.26196 5.9569,-24.32761 7.8799,-36.7859 5.8659,-38.00235 5.244,-80.81835 -7.4091,-116.82111 -2.2311,-6.34736 -5.5067,-12.05705 -8.2598,-18.08557 -3.6561,-4.91462 -6.7803,-10.52143 -10.9682,-14.7438 -18.4438,-18.59507 -46.421,-24.11198 -69.4673,-22.88444 -7.4639,0.39762 -14.8388,2.15202 -22.2581,3.22793 -39.0883,10.03398 -77.7395,22.89629 -112.1934,48.67777 0,0 50.6916,-49.92226 50.6916,-49.92226 z"
           inkscape:connector-curvature="0" />
      </g>
    </g>
    <path
       style="fill:#4d4d4d;fill-opacity:1;stroke-width:0.2;stroke-linecap:round;stroke-linejoin:miter;stroke-miterlimit:4;stroke-dasharray:none"
       id="path5787"
       d="m 1794.2844,275.09527 c -18.1269,-2.96427 -36.3539,-4.53733 -54.5994,-5.67124 -4.1949,0.34422 -8.413,0.34278 -12.5848,1.03245 -8.3246,1.37615 -17.939,4.34321 -25.7495,8.57096 -4.1291,2.23556 -15.8449,10.95899 -11.9679,7.9998 47.102,-35.95366 50.7919,-42.03987 30.0355,-17.59129 -16.8262,22.63251 -23.5181,45.30612 -27.1544,76.40034 -2.4413,32.37544 2.5891,64.17028 7.2314,95.70738 6.4129,36.25101 17.7296,70.11251 33.76,100.23499 12.3539,19.78714 29.2485,33.24281 48.6946,34.23468 4.6563,0.23724 9.3021,-0.76343 13.9532,-1.14515 4.9203,-1.90614 9.9777,-3.24716 14.7609,-5.71842 5.0017,-2.5843 19.108,-13.07632 14.4909,-9.39542 -11.9153,9.49914 -23.5252,20.14576 -36.4166,26.875 -5.0539,2.6382 8.5167,-9.15176 12.3739,-14.32475 8.9652,-12.02229 12.3398,-19.82793 19.4832,-33.64042 10.1369,-23.66178 17.3055,-50.06486 18.5583,-77.64754 0.8607,-18.95303 -0.6645,-27.33555 -2.5337,-45.96261 -7.1422,-43.43103 -23.1364,-82.05397 -43.698,-116.15348 -15.643,-20.03796 -33.4995,-36.54203 -50.9241,-53.53432 -6.16,-5.70106 -3.1667,-3.20748 -8.923,-7.60644 0,0 52.559,-46.0752 52.559,-46.0752 l 0,0 c 5.5592,5.40153 2.725,2.46702 8.467,8.867 16.7552,18.6579 34.6379,35.63745 49.678,56.94764 20.3537,35.91545 36.8784,75.87483 44.5306,120.4178 1.7577,16.65319 3.7425,30.70221 3.4958,47.64494 -0.417,28.63798 -7.2425,56.08977 -17.1845,81.01988 -6.4021,12.96935 -11.3213,23.9883 -19.1774,35.55222 -20.7745,30.57799 -50.2762,47.52086 -76.3253,67.30542 -4.7878,3.6363 -9.9948,6.23444 -15.2291,8.45048 -5.1545,2.18205 -10.5476,3.12981 -15.8213,4.69473 -5.0409,0.0886 -10.0966,0.80911 -15.1224,0.26484 -20.9788,-2.27139 -38.4437,-17.67228 -51.3771,-39.54527 -15.8969,-31.51096 -27.3595,-66.37045 -34.4126,-103.45148 -5.6336,-32.05973 -11.0007,-64.29223 -9.2626,-97.53857 3.0053,-34.61496 8.7661,-55.71076 26.3294,-82.14686 26.3084,-34.14406 11.4188,-16.67781 71.8891,-63.66303 15.6819,-12.1848 34.7947,-14.18286 52.3621,-14.94511 19.0186,1.077 38.0564,3.50867 57.0908,2.76331 0,0 -51.28,50.77253 -51.28,50.77253 z"
       inkscape:connector-curvature="0" />
    <path
       style="fill:#4d4d4d;fill-opacity:1;stroke-width:0.2;stroke-linecap:round;stroke-linejoin:miter;stroke-miterlimit:4;stroke-dasharray:none"
       id="path5789"
       d="m 2073.7911,290.45289 c -24.3388,-2.7621 -48.3783,-8.98581 -72.6709,-12.67524 -10.8528,-0.4688 -22.0722,-5.72359 -32.5507,0.674 -3.1101,1.89924 -11.5733,9.8009 -8.5735,7.59572 65.5715,-48.19826 81.8533,-72.85181 56.3198,-37.48158 -16.368,26.5474 -21.5635,59.30352 -24.5709,92.78366 -2.4813,35.20287 -2.5118,70.55784 -0.2791,105.75681 2.683,25.65349 4.7165,51.90176 15.8309,73.50488 11.6462,17.83603 26.1859,29.98072 42.923,36.45808 25.6464,7.11351 51.8249,4.11828 77.6985,1.67236 4.2096,-0.91223 8.5606,-1.0055 12.6297,-2.73663 3.4069,-1.44921 12.6646,-8.97518 9.5166,-6.68505 -21.9453,15.96256 -42.8294,35.05323 -65.9068,47.70327 -3.896,2.13546 4.6705,-9.62274 6.1805,-14.9642 4.9735,-17.59328 5.7138,-33.5292 7.6308,-52.15032 4.1847,-53.33525 2.6315,-106.93021 0.587,-160.34165 -1.7788,-39.18266 -1.9952,-78.51889 -5.2078,-117.54926 0,0 75.2477,-53.37702 75.2477,-53.37702 l 0,0 c 1.7443,39.47795 1.5391,79.09971 4.2769,118.51462 2.833,54.29373 0.7635,108.52385 -1.1014,162.85531 -0.5441,9.52552 -2.2216,65.2678 -8.5288,71.78167 -39.4943,40.78762 -61.4042,70.85676 -103.4036,75.24371 -27.0427,1.91006 -54.6968,5.3393 -81.2827,-3.61008 -17.8199,-8.95924 -33.1778,-23.40982 -45.6676,-43.07523 -1.9099,-3.73902 -4.0775,-7.25668 -5.7304,-11.21702 -8.5895,-20.58475 -7.809,-45.77286 -11.4835,-68.27394 -2.1972,-35.98326 -1.9355,-71.9592 -0.1301,-107.99426 2.4756,-34.9756 6.6621,-69.54035 22.0073,-98.88515 26.2545,-47.21504 7.1199,-16.1574 89.5876,-80.99595 3.1795,-2.49958 6.7886,-3.98923 10.3843,-4.98993 10.9351,-3.04315 21.9661,2.29005 32.8261,2.8983 24.8011,4.24455 49.7112,11.08486 74.7977,8.88261 0,0 -71.3552,70.67751 -71.3552,70.67751 z"
       inkscape:connector-curvature="0" />
    <path
       style="fill:#4d4d4d;fill-opacity:1;stroke-width:0.2;stroke-linecap:round;stroke-linejoin:miter;stroke-miterlimit:4;stroke-dasharray:none"
       id="path5819"
       d="m 2376.0624,284.78496 c -14.2285,-15.48257 -31.3062,-21.42653 -48.5388,-25.82674 -17.6951,-2.29573 -36.377,-7.52088 -54.0148,-1.30236 -3.0077,1.06022 -5.841,2.95846 -8.7613,4.43762 92.0797,-77.48162 47.4136,-43.87029 31.3762,-13.27345 -10.6576,20.33312 -17.1823,42.60962 -23.5819,66.11368 -7.295,36.51599 -15.3902,75.60671 -11.8785,114.11509 0.5495,6.02215 1.8413,11.85556 2.7621,17.78337 7.5136,32.19765 23.7107,56.2276 42.7513,75.14247 23.1846,18.73745 49.9317,21.25318 75.917,23.3676 11.2868,0.44726 23.0124,1.97259 33.862,-3.8044 2.8174,-1.50009 10.6271,-8.06136 8.006,-5.95095 -55.0137,44.2941 -66.0952,61.21717 -46.86,34.0999 7.4438,-12.48236 11.3141,-28.02645 15.8862,-42.84131 0.6285,-1.75965 1.2575,-3.51926 1.8858,-5.27892 0,0 63.7745,-41.32719 63.7745,-41.32719 l 0,0 c -0.6495,1.80337 -1.2987,3.60673 -1.9485,5.41013 -6.2437,14.47433 -8.8962,31.84253 -16.2086,45.54201 -19.7272,37.95877 -5.2806,12.64307 -70.2047,65.24039 -12.5308,10.15167 -29.0046,4.76363 -42.425,4.76168 -27.1016,-2.85973 -54.8408,-6.26576 -78.5839,-27.15233 -20.212,-20.75173 -36.9533,-47.14486 -44.8651,-81.67596 -0.9657,-6.47557 -2.2925,-12.86142 -2.8976,-19.42679 -3.6777,-39.90008 4.7059,-80.40398 11.8884,-118.43374 5.8168,-23.90015 11.7534,-46.63054 21.4057,-68.00328 2.0409,-4.51923 12.5172,-25.54208 16.4889,-29.10417 21.9588,-19.69453 45.0079,-36.76076 67.5118,-55.14115 21.2779,-6.93503 42.8215,-3.48371 64.2609,0.94228 18.2714,5.18498 35.8113,13.11817 51.9674,26.75282 0,0 -58.9755,54.8337 -58.9755,54.8337 z"
       inkscape:connector-curvature="0" />
    <path
       style="fill:#4d4d4d;fill-opacity:1;stroke-width:0.2;stroke-linecap:round;stroke-linejoin:miter;stroke-miterlimit:4;stroke-dasharray:none"
       id="path5821"
       d="m 2417.7087,205.89702 c -1.4421,36.08713 -1.6241,72.37968 -1.0828,108.54705 -0.088,40.78507 4.7497,79.91302 10.6121,118.71488 4.5294,26.72019 12.6899,50.93713 22.3279,71.80719 6.0892,12.94879 11.3727,27.02999 16.7267,41.06961 2.7033,4.95786 1.3617,2.34555 4.0134,7.85847 0,0 -46.7373,55.08471 -46.7373,55.08471 l 0,0 c -2.7094,-5.79086 -1.2944,-2.72734 -4.2382,-9.2024 -4.931,-14.19177 -9.9513,-28.23839 -15.8613,-41.02686 -9.4247,-23.06268 -17.6858,-48.65235 -22.443,-76.72398 -5.6035,-39.86256 -10.5428,-79.98945 -10.4003,-121.66551 -0.8258,-35.30456 -0.4075,-70.71778 -1.9706,-105.94637 0,0 49.0534,-48.51679 49.0534,-48.51679 z"
       inkscape:connector-curvature="0" />
    <path
       style="fill:#4d4d4d;fill-opacity:1;stroke-width:0.2;stroke-linecap:round;stroke-linejoin:miter;stroke-miterlimit:4;stroke-dasharray:none"
       id="path5827"
       d="m 2542.5124,234.98854 c -2.0111,37.2109 -2.1181,74.53489 -1.9895,111.81887 0.077,38.58366 0.237,77.16854 0.7812,115.74638 0.348,18.38308 0.6404,36.77037 1.1047,55.14892 0.1299,9.7999 0.1578,19.59685 0.081,29.39763 0.029,1.55481 0.036,3.10965 0.047,4.66443 0,0 -68.956,45.83652 -68.956,45.83652 l 0,0 c 0.029,-1.57593 0.036,-3.1518 0.046,-4.72784 -0.081,-9.83575 -0.047,-19.66785 0.081,-29.50288 0.4614,-18.86842 0.7573,-37.74501 1.105,-56.61778 0.5401,-38.92404 0.7048,-77.85491 0.7812,-116.78471 0.1245,-36.40101 0.081,-72.85153 -1.9894,-109.17404 0,0 68.9091,-45.8055 68.9091,-45.8055 z"
       inkscape:connector-curvature="0" />
    <path
       style="fill:#4d4d4d;fill-opacity:1;stroke-width:0.2;stroke-linecap:round;stroke-linejoin:miter;stroke-miterlimit:4;stroke-dasharray:none"
       id="path5829"
       d="m 2505.4739,338.26716 c 18.5984,-22.72449 37.249,-45.23884 58.1871,-64.25569 50.2009,-43.43659 83.1736,-71.7389 139.0322,-74.7186 3.6102,0.73555 7.3577,0.7237 10.8301,2.20675 22.5494,9.63145 25.5772,43.0188 28.3099,68.96215 2.9097,59.20425 2.3568,118.6008 2.5825,177.89986 0.5623,40.34174 -0.7475,80.67151 -2.0972,120.96435 0,0 -67.3866,44.02491 -67.3866,44.02491 l 0,0 c 2.9788,-40.8903 6.8832,-81.77218 6.219,-122.9423 0.2765,-58.40382 0.914,-117.07672 -4.1407,-175.19778 -4.2053,-31.19774 -6.0269,-56.25713 -34.4121,-58.27334 -12.8391,1.23741 -25.1976,3.36628 -37.5939,8.19148 -4.1841,1.62868 -15.9688,8.86146 -12.3622,5.64993 16.7836,-14.94671 77.2648,-59.57917 39.9633,-31.94674 -20.4851,16.96495 -38.8246,37.43002 -55.3457,60.6436 0,0 -71.7857,38.79142 -71.7857,38.79142 z"
       inkscape:connector-curvature="0" />
    <path
       style="fill:#4d4d4d;fill-opacity:1;stroke-width:0.2;stroke-linecap:round;stroke-linejoin:miter;stroke-miterlimit:4;stroke-dasharray:none"
       id="path5849"
       d="m 2165.4133,484.69071 c -0.461,15.52035 -1.3431,31.1576 -0.043,46.63295 0.918,13.18301 4.4964,23.48246 12.0264,32.22453 3.5604,6.67916 9.0481,10.32669 13.6698,15.24543 1.7477,1.85937 7.6268,10.3613 9.0446,12.37205 12.9833,15.40918 21.4813,35.08422 26.9011,56.60316 4.3764,20.10765 5.3777,41.08516 6.0022,61.86811 0.7107,20.63951 -7.5189,34.03736 -18.498,47.38111 -35.7658,35.00778 -74.7363,65.9814 -116.917,85.87983 -20.1544,10.92091 -41.6291,14.93333 -63.2096,17.16535 -20.5119,1.92404 -41.0961,1.49365 -61.644,1.28797 -32.1977,0.88405 -63.7248,-7.87561 -95.1589,-15.68163 -21.341,-5.4412 -42.7309,-13.4594 -59.6656,-31.91828 -6.6868,-10.25649 -11.1943,-25.94922 -8.1776,-39.54591 0.7025,-3.1677 2.1642,-5.96043 3.2462,-8.94065 33.8013,-49.80984 83.3507,-67.68262 130.3978,-82.05124 10.3457,-3.13332 20.8287,-5.35554 31.2988,-7.62881 0,0 -60.6013,59.33931 -60.6013,59.33931 l 0,0 c -9.96,1.90076 -19.9021,3.97968 -29.7054,7.01365 -13.0031,4.09865 -26.1723,8.05978 -38.7306,14.18703 -3.9215,1.91352 -15.0681,9.40683 -11.5477,6.4493 109.8835,-92.32003 66.4831,-53.33174 48.8102,-37.34342 -2.3709,3.35271 -5.7048,6.86716 -6.2429,11.8684 -0.8744,8.12406 2.4315,17.72759 6.1945,23.79446 15.3546,17.43472 35.0819,24.82158 54.6657,30.22084 31.5638,8.15265 63.3952,15.264 95.7314,12.87945 20.5056,-0.2 41.0399,-0.20261 61.4982,-2.25872 21.223,-2.89185 42.0921,-8.17321 61.8398,-19.14764 25.7412,-13.40305 66.9805,-45.63653 -35.1543,30.88053 -5.3358,3.99764 10.6217,-8.11555 15.8183,-12.41409 2.4306,-2.01076 4.6378,-4.44941 6.9569,-6.67412 9.9502,-11.00208 20.2054,-20.86741 20.8194,-39.30018 -0.1036,-20.03547 -0.4635,-40.25002 -4.3546,-59.76166 -4.9441,-20.38374 -13.0208,-38.36686 -25.7961,-52.1944 -7.4217,-9.45526 -16.2787,-16.6088 -23.0989,-26.9289 -8.0632,-10.87272 -13.2333,-23.16289 -14.3522,-38.49748 -1.2934,-15.58359 -0.2549,-31.32362 -1.2979,-46.95719 0,0 69.276,-46.04914 69.276,-46.04914 z"
       inkscape:connector-curvature="0" />
    <path
       style="fill:#ffffff;fill-opacity:1;stroke-width:0.2;stroke-linecap:round;stroke-linejoin:miter;stroke-miterlimit:4;stroke-dasharray:none"
       id="path5679-8"
       d="m 608.05295,240.60008 c -1.54801,28.92354 0.44498,57.9222 1.10836,86.84312 0.90977,47.04736 3.34843,93.97628 4.47845,141.0177 0.60956,34.98663 1.98737,69.93911 2.63394,104.92102 0.31337,12.09766 0.34755,6.05694 -0.1004,18.12214 0,0 -58.22333,44.01946 -58.22333,44.01946 l 0,0 c 0.98904,-11.37894 0.66226,-5.49503 0.91212,-17.66019 0.35885,-35.54403 0.99718,-71.09583 0.0269,-106.63898 -1.27485,-46.77345 -3.53265,-93.43191 -5.4177,-140.14944 -1.28179,-28.34478 -3.0865,-56.61036 -4.26654,-84.94974 0,0 58.84822,-45.52509 58.84822,-45.52509 z"
       inkscape:connector-curvature="0" />
    <path
       style="fill:#ffffff;fill-opacity:1;stroke-width:0.2;stroke-linecap:round;stroke-linejoin:miter;stroke-miterlimit:4;stroke-dasharray:none"
       id="path5679-3"
       d="m 410.91009,249.17151 c -1.54801,28.92354 0.44498,57.9222 1.10836,86.84312 0.90977,47.04736 3.34843,93.97628 4.47845,141.0177 0.60956,34.98663 1.98737,69.93911 2.63394,104.92102 0.31337,12.09766 0.34755,6.05694 -0.1004,18.12214 0,0 -58.22333,44.01946 -58.22333,44.01946 l 0,0 c 0.98904,-11.37894 0.66226,-5.49503 0.91212,-17.66019 0.35885,-35.54403 0.99718,-71.09583 0.0269,-106.63898 -1.27485,-46.77345 -3.53265,-93.43191 -5.4177,-140.14944 -1.28179,-28.34478 -3.0865,-56.61036 -4.26654,-84.94974 0,0 58.84822,-45.52509 58.84822,-45.52509 z"
       inkscape:connector-curvature="0" />
    <path
       style="fill:#ffffff;fill-opacity:1;stroke-width:0.2;stroke-linecap:round;stroke-linejoin:miter;stroke-miterlimit:4;stroke-dasharray:none"
       id="path6678"
       d="m 427.78138,393.95667 c 2.35043,-1.19971 4.72063,-2.36147 7.0513,-3.59914 9.74441,-5.17463 16.97063,-9.47713 27.15683,-14.4623 20.35464,-9.96165 41.26859,-17.98965 62.5797,-25.60847 21.99479,-6.84077 44.27549,-13.84554 67.39908,-15.49369 7.74379,-0.55194 11.44949,-0.14319 18.83218,0.27174 2.11748,0.54322 4.23495,1.08643 6.35243,1.62965 0,0 -34.16052,23.60896 -34.16052,23.60896 l 0,0 c -1.87997,-0.41717 -3.75995,-0.83434 -5.63992,-1.25151 -28.87354,-1.96276 -55.42766,5.70828 -82.69438,14.59158 -7.08639,2.58398 -14.2437,4.98118 -21.25917,7.75194 -27.27968,10.77414 -53.00757,24.64824 -78.56922,38.91948 0,0 32.95169,-26.35824 32.95169,-26.35824 z"
       inkscape:connector-curvature="0"
       transform="translate(0,20.987528)" />
  </g>
</svg>
