<?xml version="1.0" encoding="UTF-8" standalone="no"?>
<!-- Created with Inkscape (http://www.inkscape.org/) -->

<svg
   xmlns:dc="http://purl.org/dc/elements/1.1/"
   xmlns:cc="http://creativecommons.org/ns#"
   xmlns:rdf="http://www.w3.org/1999/02/22-rdf-syntax-ns#"
   xmlns:svg="http://www.w3.org/2000/svg"
   xmlns="http://www.w3.org/2000/svg"
   xmlns:sodipodi="http://sodipodi.sourceforge.net/DTD/sodipodi-0.dtd"
   xmlns:inkscape="http://www.inkscape.org/namespaces/inkscape"
   id="svg2"
   version="1.1"
   inkscape:version="0.48.5 r10040"
   width="1280"
   height="590"
   sodipodi:docname="header_0.svg">
  <metadata
     id="metadata8">
    <rdf:RDF>
      <cc:Work
         rdf:about="">
        <dc:format>image/svg+xml</dc:format>
        <dc:type
           rdf:resource="http://purl.org/dc/dcmitype/StillImage" />
        <dc:title></dc:title>
      </cc:Work>
    </rdf:RDF>
  </metadata>
  <defs
     id="defs6" />
  <sodipodi:namedview
     pagecolor="#ffffff"
     bordercolor="#666666"
     borderopacity="1"
     objecttolerance="10"
     gridtolerance="10"
     guidetolerance="10"
     inkscape:pageopacity="0"
     inkscape:pageshadow="2"
     inkscape:window-width="1196"
     inkscape:window-height="670"
     id="namedview4"
     showgrid="false"
     inkscape:zoom="0.5203125"
     inkscape:cx="657.48531"
     inkscape:cy="290.71043"
     inkscape:window-x="124"
     inkscape:window-y="45"
     inkscape:window-maximized="0"
     inkscape:current-layer="g3049" />
  <text
     xml:space="preserve"
     style="font-size:40px;font-style:normal;font-weight:normal;line-height:125%;letter-spacing:0px;word-spacing:0px;fill:#000000;fill-opacity:1;stroke:none;font-family:Sans"
     x="130.69069"
     y="226.75676"
     id="text3008"
     sodipodi:linespacing="125%"><tspan
       sodipodi:role="line"
       id="tspan3010"
       x="130.69069"
       y="226.75676" /></text>
  <g
     transform="matrix(0.68243242,0,0,-0.9991729,-129.24925,589.74098)"
     inkscape:label="Multiprint"
     id="g3049">
    <path
       sodipodi:type="arc"
       style="fill:#000000;fill-opacity:1;stroke-width:0.20000000000000001;stroke-linecap:round;stroke-linejoin:miter;stroke-miterlimit:4;stroke-dasharray:none;"
       id="path3142"
       sodipodi:cx="300.78079"
       sodipodi:cy="294.98499"
       sodipodi:rx="295.01501"
       sodipodi:ry="295.01501"
       d="m 595.79581,294.98499 a 295.01501,295.01501 0 1 1 -0.10303,-7.7959"
       transform="matrix(1.4653466,0,0,1.0008278,189.39494,-0.22918784)"
       sodipodi:start="0"
       sodipodi:end="6.2567568"
       sodipodi:open="true" />
    <path
       sodipodi:type="arc"
       style="fill:#4d4d4d;fill-opacity:1;stroke-width:13.80000019000000044;stroke-linecap:round;stroke-linejoin:miter;stroke-miterlimit:4;stroke-dasharray:none;"
       id="path3142-4"
       sodipodi:cx="300.78079"
       sodipodi:cy="294.98499"
       sodipodi:rx="295.01501"
       sodipodi:ry="295.01501"
       d="m 595.79581,294.98499 a 295.01501,295.01501 0 1 1 -0.10303,-7.7959"
       transform="matrix(1.4653466,0,0,1.0008278,356.729,-1.4253688)"
       sodipodi:start="0"
       sodipodi:end="6.2567568"
       sodipodi:open="true"
       inkscape:transform-center-x="192.19219"
       inkscape:transform-center-y="-53.813814" />
    <path
       sodipodi:type="arc"
       style="fill:#666666;fill-opacity:1;stroke-width:13.80000019000000044;stroke-linecap:round;stroke-linejoin:miter;stroke-miterlimit:4;stroke-dasharray:none;"
       id="path3142-4-5"
       sodipodi:cx="300.78079"
       sodipodi:cy="294.98499"
       sodipodi:rx="295.01501"
       sodipodi:ry="295.01501"
       d="m 595.79581,294.98499 a 295.01501,295.01501 0 1 1 -0.10303,-7.7959"
       transform="matrix(1.4653466,0,0,-1.0008278,524.06308,587.34389)"
       sodipodi:start="0"
       sodipodi:end="6.2567568"
       sodipodi:open="true"
       inkscape:transform-center-x="281.62816"
       inkscape:transform-center-y="-53.858354" />
    <path
       sodipodi:type="arc"
       style="fill:#808080;fill-opacity:1;stroke-width:13.80000019000000044;stroke-linecap:round;stroke-linejoin:miter;stroke-miterlimit:4;stroke-dasharray:none;"
       id="path3142-4-5-0"
       sodipodi:cx="300.78079"
       sodipodi:cy="294.98499"
       sodipodi:rx="295.01501"
       sodipodi:ry="295.01501"
       d="m 595.79581,294.98499 a 295.01501,295.01501 0 1 1 -0.10303,-7.7959"
       transform="matrix(1.4653466,0,0,-1.0008278,691.39715,589.2674)"
       sodipodi:start="0"
       sodipodi:end="6.2567568"
       sodipodi:open="true"
       inkscape:transform-center-x="412.68285"
       inkscape:transform-center-y="53.902946" />
    <path
       sodipodi:type="arc"
       style="fill:#999999;fill-opacity:1;stroke-width:13.80000019000000044;stroke-linecap:round;stroke-linejoin:miter;stroke-miterlimit:4;stroke-dasharray:none;"
       id="path3142-4-5-0-9"
       sodipodi:cx="300.78079"
       sodipodi:cy="294.98499"
       sodipodi:rx="295.01501"
       sodipodi:ry="295.01501"
       d="m 595.79581,294.98499 a 295.01501,295.01501 0 1 1 -0.10303,-7.7959"
       transform="matrix(1.4653466,0,0,-1.0008278,858.7312,587.34389)"
       sodipodi:start="0"
       sodipodi:end="6.2567568"
       sodipodi:open="true"
       inkscape:transform-center-x="604.72339"
       inkscape:transform-center-y="-53.947557" />
    <path
       sodipodi:type="arc"
       style="fill:#b3b3b3;fill-opacity:1;stroke-width:13.80000019000000044;stroke-linecap:round;stroke-linejoin:miter;stroke-miterlimit:4;stroke-dasharray:none;"
       id="path3142-4-5-0-3"
       sodipodi:cx="300.78079"
       sodipodi:cy="294.98499"
       sodipodi:rx="295.01501"
       sodipodi:ry="295.01501"
       d="m 595.79581,294.98499 a 295.01501,295.01501 0 1 1 -0.10303,-7.7959"
       transform="matrix(1.4653466,0,0,-1.0008278,1026.0652,589.2674)"
       sodipodi:start="0"
       sodipodi:end="6.2567568"
       sodipodi:open="true"
       inkscape:transform-center-x="604.72339"
       inkscape:transform-center-y="-53.947557" />
    <path
       sodipodi:type="arc"
       style="fill:#e6e6e6;fill-opacity:1;stroke-width:13.80000019000000044;stroke-linecap:round;stroke-linejoin:miter;stroke-miterlimit:4;stroke-dasharray:none;"
       id="path3142-4-5-0-2"
       sodipodi:cx="300.78079"
       sodipodi:cy="294.98499"
       sodipodi:rx="295.01501"
       sodipodi:ry="295.01501"
       d="m 595.79581,294.98499 a 295.01501,295.01501 0 1 1 -0.10303,-7.7959"
       transform="matrix(1.4653466,0,0,-1.0008278,1193.3993,585.42038)"
       sodipodi:start="0"
       sodipodi:end="6.2567568"
       sodipodi:open="true"
       inkscape:transform-center-x="604.72339"
       inkscape:transform-center-y="-53.947557" />
    <path
       style="fill:#ffffff;fill-opacity:1;stroke-width:13.80000019000000044;stroke-linecap:round;stroke-linejoin:miter;stroke-miterlimit:4;stroke-dasharray:none"
       id="path3288"
       d="m 270.61279,518.79021 c 17.93692,-14.4253 39.36983,-24.76375 62.66255,-31.66545 6.78316,-2.00989 13.76352,-3.50571 20.64531,-5.25854 36.13829,-6.61368 73.51861,-7.48454 109.74184,-0.78011 5.31514,0.98375 10.4963,2.42951 15.74446,3.64424 4.18634,1.42593 16.34033,6.36346 12.55904,4.2778 -53.44819,-29.4807 -26.58232,-13.45117 -20.23682,-6.1942 1.94569,2.22515 3.64158,4.65368 4.80725,7.24082 3.16833,7.03195 1.85643,7.09075 -0.51078,13.58907 -2.22787,1.68275 -3.95407,4.02526 -6.68358,5.04825 -8.35535,3.13158 -21.39747,2.2163 -29.48012,0.43662 -7.42614,-1.63514 -14.20323,-4.96149 -21.51378,-6.93537 -2.68496,-0.72496 9.68202,4.76241 7.57924,3.17297 -9.5334,-7.20607 -20.03302,-13.43847 -30.04952,-20.15768 -55.18648,-43.3224 -101.36654,-94.9674 -132.4733,-153.19448 -5.74341,-10.75083 -10.29698,-21.93004 -15.44546,-32.89503 -3.43078,-10.77 -7.82081,-21.35293 -10.29234,-32.30997 -8.5343,-37.83534 -3.60065,-80.31987 23.00691,-112.69187 6.56356,-7.98551 15.42244,-14.42338 23.13367,-21.63507 27.64847,-15.00557 36.23226,-23.36991 71.05929,-26.22751 16.37695,-1.34375 33.00749,0.0382 49.3077,1.93705 37.32767,4.34829 70.38791,14.08027 105.0176,26.30015 16.82677,5.93771 33.01535,13.09833 49.52304,19.64748 14.53987,6.85719 29.34763,13.32164 43.61961,20.57159 2.20166,1.1184 3.57189,3.15299 5.63395,4.44843 8.90248,5.59286 18.22958,10.68581 27.21177,16.18643 17.93227,10.98165 19.32501,12.22706 34.95625,23.04413 0,0 37.9191,12.90217 37.9191,12.90217 l 0,0 C 653.61881,194.73493 594.50255,163.63968 532.7659,136.65776 516.30458,130.2399 500.1518,123.22045 483.38195,117.40419 447.98758,105.12841 414.78346,95.491962 376.72107,91.124517 c -17.0214,-1.953108 -34.37202,-3.474923 -51.47116,-2.092576 -35.71774,2.887548 -45.07912,11.697529 -73.48236,26.998349 -7.93822,7.41799 -17.05882,14.03827 -23.81464,22.254 -27.26897,33.16167 -32.10494,76.56647 -23.13878,115.25962 2.57768,11.12387 7.04476,21.8727 10.56714,32.80907 5.26436,11.10804 9.94719,22.42682 15.79304,33.32413 31.10475,57.98269 76.49928,109.78785 130.49497,153.87259 38.496,27.29376 31.75342,24.83421 88.14356,49.47421 15.51187,6.77801 39.2144,12.25388 56.0707,4.79809 3.29243,-1.4563 5.36002,-4.3572 8.04004,-6.5358 1.03002,-2.61801 2.79526,-5.10575 3.09007,-7.85408 0.59244,-5.52294 -2.45786,-11.94538 -5.76672,-16.47261 -13.67626,-18.71203 -41.17907,-26.74976 -64.8963,-33.65916 -5.14771,-1.01768 -10.24509,-2.23942 -15.44311,-3.05303 -36.57935,-5.72563 -74.06887,-4.38714 -110.32244,2.33284 -7.03092,1.78944 -14.15474,3.33516 -21.09275,5.3683 -24.20362,7.09264 -46.26576,17.80721 -66.51762,31.0072 0,0 37.63808,19.83455 37.63808,19.83455 z"
       inkscape:connector-curvature="0" />
    <path
       style="fill:#ffffff;fill-opacity:1;stroke-width:0.20000000000000001;stroke-linecap:round;stroke-linejoin:miter;stroke-miterlimit:4;stroke-dasharray:none"
       id="path5667"
       d="m 536.77196,398.14763 c -2.92789,-31.24652 -3.70644,-62.59927 -4.51463,-93.92508 -0.18061,-54.51011 -3.03778,-108.96754 -8.30446,-163.28636 -0.51112,-5.07785 -1.02222,-10.15571 -1.53335,-15.2336 0,0 -35.05914,-14.66764 -35.05914,-14.66764 l 0,0 c 1.03274,5.27909 2.06551,10.55818 3.09827,15.83727 2.74053,16.54365 4.76916,27.54172 6.63393,44.52439 4.36199,39.72533 5.82099,79.70287 4.47532,119.57758 -0.79232,30.0265 -1.50334,60.08822 -4.51463,90.02723 0,0 39.71869,17.14621 39.71869,17.14621 z"
       inkscape:connector-curvature="0" />
    <path
       style="fill:#ffffff;fill-opacity:1;stroke-width:0.20000000000000001;stroke-linecap:round;stroke-linejoin:miter;stroke-miterlimit:4;stroke-dasharray:none"
       id="path5669"
       d="m 500.65365,224.30885 c 24.97309,13.10481 50.41201,25.57014 78.33282,33.4467 14.93584,3.67273 30.63322,5.50716 46.11395,3.33152 2.87189,-0.4036 5.66732,-1.13048 8.50099,-1.69572 23.28706,-5.95332 26.47117,-13.16086 31.60172,-32.64815 4.82967,-25.02343 3.83074,-50.3781 2.55444,-75.59169 -0.0418,-6.7433 -0.78655,-13.44535 -1.73801,-20.1302 0,0 -38.77733,-16.05581 -38.77733,-16.05581 l 0,0 c 1.72665,6.80253 3.42336,13.61948 3.8316,20.59733 2.45836,24.86755 4.1879,49.96985 -2.11786,74.58144 -5.7129,17.62902 -8.95322,23.52248 -30.16946,28.77212 -18.78161,3.20067 -34.77304,2.06463 -52.99355,-3.07544 -9.21524,-2.86212 -8.42792,-2.43817 -17.3145,-5.91055 -16.06998,-6.27927 -55.55431,-24.55675 13.59716,8.33499 0,0 -41.42197,-13.95654 -41.42197,-13.95654 z"
       inkscape:connector-curvature="0" />
    <path
       style="fill:#ffffff;fill-opacity:1;stroke-width:0.20000000000000001;stroke-linecap:round;stroke-linejoin:miter;stroke-miterlimit:4;stroke-dasharray:none"
       id="path5679"
       d="m 738.52509,252.72635 c -1.0448,-10.89354 0.30034,-21.81537 0.74807,-32.70792 0.61403,-17.71956 2.25997,-35.3945 3.02266,-53.11181 0.41141,-13.1771 1.34135,-26.34133 1.77773,-39.51664 0.21151,-4.55637 0.23457,-2.28124 -0.0677,-6.82539 0,0 -39.29693,-16.57914 -39.29693,-16.57914 l 0,0 c 0.66754,4.28567 0.44699,2.0696 0.61562,6.65139 0.24221,13.38703 0.67304,26.77699 0.0182,40.16368 -0.86044,17.61639 -2.3843,35.18947 -3.65659,52.7848 -0.86512,10.67556 -2.08318,21.32129 -2.87963,31.99481 0,0 39.71869,17.14622 39.71869,17.14622 z"
       inkscape:connector-curvature="0" />
    <path
       style="fill:#ffffff;fill-opacity:1;stroke-width:0.20000000000000001;stroke-linecap:round;stroke-linejoin:miter;stroke-miterlimit:4;stroke-dasharray:none"
       id="path5685"
       d="m 740.86454,226.86652 c 11.06126,2.43557 22.3057,4.23715 33.51842,6.09582 12.07752,2.81693 24.09475,5.76947 36.38671,7.86633 9.63076,1.50926 19.38056,2.54608 29.15782,3.05486 7.14725,-0.33476 10.42955,-5.30622 13.73507,-9.98893 2.94992,-3.64732 4.47301,-7.90376 6.66773,-11.86257 0.34784,-0.64553 0.6957,-1.29103 1.04354,-1.93655 0,0 -38.6273,-18.46452 -38.6273,-18.46452 l 0,0 c -0.33565,0.63593 -0.6713,1.27184 -1.00696,1.90776 -2.09708,3.85555 -3.69301,7.91367 -6.34404,11.55194 -2.78503,3.86741 -4.95704,7.21231 -11.01358,6.638 -9.37152,-0.45582 -18.72831,-1.25316 -27.90991,-2.97489 -12.15892,-2.39183 -24.13822,-5.33779 -36.29054,-7.73119 -11.70285,-2.02658 -23.44311,-3.98597 -34.81049,-7.15057 0,0 35.49353,22.99451 35.49353,22.99451 z"
       inkscape:connector-curvature="0" />
    <path
       style="fill:#ffffff;fill-opacity:1;stroke-width:0.20000000000000001;stroke-linecap:round;stroke-linejoin:miter;stroke-miterlimit:4;stroke-dasharray:none"
       id="path5687"
       d="m 913.01899,233.88384 c -1.38811,-16.37519 -1.2653,-32.82437 -1.16663,-49.23377 0.17806,-14.83475 0.23331,-29.67203 0.53795,-44.50549 0.28444,-5.34565 0.31316,-10.69619 0.49046,-16.044 0,0 -39.12613,-16.89041 -39.12613,-16.89041 l 0,0 c 0.17692,5.48894 0.20908,10.98054 0.49047,16.46746 0.30245,14.98833 0.36064,29.98035 0.53795,44.96993 0.0963,16.07255 0.25798,32.19098 -1.16664,48.22653 0,0 39.40257,17.00975 39.40257,17.00975 z"
       inkscape:connector-curvature="0" />
    <path
       style="fill:#ffffff;fill-opacity:1;stroke-width:0.20000000000000001;stroke-linecap:round;stroke-linejoin:miter;stroke-miterlimit:4;stroke-dasharray:none"
       id="path5689"
       d="m 910.16582,280.7901 c -0.40521,-5.07409 -0.17199,-10.16141 -0.11,-15.24093 10e-4,-0.71034 0.003,-1.42068 0.004,-2.13105 0,0 -39.50896,-17.05567 -39.50896,-17.05567 l 0,0 c 0.001,0.71182 0.003,1.42364 0.004,2.13545 0.061,5.04772 0.2997,10.10413 -0.10999,15.14598 0,0 39.7187,17.14622 39.7187,17.14622 z"
       inkscape:connector-curvature="0" />
    <path
       style="fill:#ffffff;fill-opacity:1;stroke-width:0.20000000000000001;stroke-linecap:round;stroke-linejoin:miter;stroke-miterlimit:4;stroke-dasharray:none"
       id="path5695"
       d="m 1023.7965,222.43491 c -9.7479,1.52998 -19.7132,2.01722 -29.60458,1.69364 -13.79131,-0.82173 -26.3637,-5.62052 -38.30089,-11.1621 62.60097,29.80378 32.4762,18.26501 21.86735,8.23723 -2.71961,-2.57068 -2.95586,-3.11716 -5.12837,-5.96096 -0.87048,-1.61337 -5.51069,-9.06236 -3.64821,-10.69729 1.00699,-0.88401 7.34761,-1.97354 7.9022,-2.09153 21.00813,-1.98646 41.578,-5.51832 61.7238,-10.91247 15.9855,-4.30714 30.7006,-11.01879 43.537,-20.12855 6.8009,-6.75407 11.8222,-16.70255 5.2714,-25.01214 -1.429,-1.8125 -3.5044,-3.19185 -5.2565,-4.78779 -14.5714,-7.19608 -28.8992,-14.75846 -43.7142,-21.58827 -3.9386,-1.81567 -15.0942,-4.12817 -19.1718,-4.91246 -10.0771,-1.93832 -20.31086,-3.32888 -30.51782,-4.65839 -10.92176,-1.39928 -21.95348,-1.8746 -32.88774,-3.1578 0,0 34.48092,21.7433 34.48092,21.7433 l 0,0 c 10.63704,0.83044 21.31864,1.30508 31.88534,2.7078 13.4915,1.84689 27.331,3.5489 40.2292,7.53897 3.0623,0.9473 11.6811,4.82884 8.9799,3.28263 -9.3022,-5.32459 -19.2552,-9.78347 -28.8828,-14.67519 1.826,1.17322 3.8752,2.13209 5.4782,3.51963 7.4695,6.46502 3.5156,14.76174 -2.5019,20.68078 -11.9723,9.05683 -26.2053,15.26361 -41.4005,19.57477 -8.535,2.32265 -11.8286,3.40208 -20.72194,5.05152 -13.88382,2.57504 -28.04745,3.38316 -42.08008,5.10574 -4.57853,1.21423 -8.09746,1.36214 -11.12215,4.81076 -3.52393,4.01786 1.21572,9.65111 2.44912,13.57992 12.01489,18.6188 35.05064,25.76035 56.97907,35.71819 12.29328,5.24291 25.44258,9.1603 39.31638,9.7004 10.4988,0.0837 20.9972,-0.37948 31.4039,-1.61409 0,0 -36.5643,-21.58625 -36.5643,-21.58625 z"
       inkscape:connector-curvature="0" />
    <path
       style="fill:#4d4d4d;fill-opacity:1;stroke-width:0.20000000000000001;stroke-linecap:round;stroke-linejoin:miter;stroke-miterlimit:4;stroke-dasharray:none"
       id="path5707"
       d="m 1163.1626,531.14058 c -1.7639,-18.47213 -1.8848,-37.03677 -2.0954,-55.55949 -0.6358,-27.14443 0.8165,-54.26185 1.8112,-81.38546 1.0311,-24.24375 1.332,-48.49294 1.359,-72.74973 0.107,-22.67189 0.2471,-45.34362 0.321,-68.01562 0.3136,-19.52682 0.2233,-39.05167 0.028,-58.5786 -0.2741,-19.02235 -0.05,-38.04163 0.5907,-57.05658 0.2391,-7.38862 0.7724,-14.76789 0.7205,-22.16127 -0.01,-2.81517 -7e-4,-5.63038 0.01,-8.44554 0,0 -39.2858,-16.959367 -39.2858,-16.959367 l 0,0 c 0.01,2.817199 0.018,5.634408 0.01,8.451625 -0.053,7.600322 0.4911,15.187312 0.7202,22.783222 0.6281,19.18577 0.8699,38.37557 0.5944,57.5685 -0.1929,19.53955 -0.2703,39.07687 0.057,58.61615 0.087,22.74237 0.2585,45.48475 0.2088,68.22733 -0.2106,24.27699 -0.3633,48.55729 -0.956,72.82972 -0.8545,27.15994 -2.1388,54.31734 -1.8164,81.49308 -0.2058,17.91831 -0.2789,35.88753 -2.0955,53.7503 0,0 39.824,17.19173 39.824,17.19173 z"
       inkscape:connector-curvature="0" />
    <path
       style="fill:#4d4d4d;fill-opacity:1;stroke-width:0.20000000000000001;stroke-linecap:round;stroke-linejoin:miter;stroke-miterlimit:4;stroke-dasharray:none"
       id="path5715"
       d="m 916.83042,534.44276 c 11.46159,-12.38292 28.36835,-19.71317 44.92064,-26.11444 17.85081,-6.52089 36.94013,-8.60442 56.14934,-9.56576 15.6228,-1.35138 30.8295,0.97652 45.9691,3.94392 10.2596,1.85781 20.1517,4.64263 30.6003,5.67933 10.6111,0.36266 21.1508,1.18483 31.7293,1.96154 9.5374,0.76764 18.9554,2.3122 28.464,3.35964 3.4365,0.57979 6.9286,0.19533 10.1921,1.2887 0,0 -35.3986,-22.79967 -35.3986,-22.79967 l 0,0 c -3.3445,-0.19921 -6.685,-0.43367 -10.0198,-0.73062 -9.3387,-0.89575 -18.5747,-2.48774 -27.9757,-2.91158 -10.6472,-0.85759 -21.3125,-1.44812 -31.9514,-2.33191 -10.0568,-1.42337 -19.8176,-3.93211 -29.837,-5.52687 -15.2365,-2.61506 -30.54278,-4.29297 -46.11251,-2.77208 -19.40733,1.25162 -38.49101,3.97695 -56.28187,11.06075 -17.43363,6.91886 -34.46966,14.87024 -48.56928,26.15509 0,0 38.12138,19.30396 38.12138,19.30396 z"
       inkscape:connector-curvature="0" />
    <path
       style="fill:#4d4d4d;fill-opacity:1;stroke-width:0.20000000000000001;stroke-linecap:round;stroke-linejoin:miter;stroke-miterlimit:4;stroke-dasharray:none"
       id="path5751"
       d="m 1172.1338,494.37742 c 23.0557,9.99935 48.8789,14.51948 74.4658,18.50072 5.289,0.45627 10.5487,1.24246 15.8671,1.36881 16.716,0.39707 37.4399,-2.45423 50.6284,-11.25425 3.1546,-2.10494 5.4554,-4.89196 8.183,-7.33794 2.0308,-2.87957 4.507,-5.59122 6.0923,-8.6387 8.6973,-16.71774 8.3933,-36.83577 4.011,-54.24695 -1.4311,-5.68582 -3.8002,-11.20054 -5.7003,-16.80082 -8.7937,-19.98246 -19.4991,-39.87388 -35.5486,-57.01332 -8.4548,-9.02901 -13.324,-12.32457 -23.2506,-20.19334 -29.3171,-20.78813 -65.0176,-34.77201 -99.7832,-49.05554 -5.2692,-1.60226 -9.8294,-4.2438 -14.8575,-6.20799 -2.886,-1.12741 -5.8795,-1.69705 -8.7131,-2.89017 12.3428,5.53697 24.6855,11.07394 37.0284,16.6109 -0.5971,1.3262 -2.0635,2.43879 0.6317,2.48176 1.6648,0.0265 3.3144,-0.25698 4.9749,-0.35379 7.7976,-0.45461 11.4405,-0.52666 19.7981,-0.82442 39.6943,-0.0958 78.3538,-8.42969 114.2904,-21.36644 8.3971,-3.0229 16.4516,-6.6026 24.6773,-9.90388 21.6775,-9.59736 40.4778,-21.72492 53.8081,-38.42824 11.8042,-14.79118 16.8052,-30.38796 21.8603,-47.09724 4.6757,-20.02766 6.6558,-40.34528 7.7388,-60.66197 0.4262,-4.11619 -0.4202,-8.30888 0.1908,-12.41363 0,0 -40.5833,-15.843098 -40.5833,-15.843098 l 0,0 c 1.6727,4.058233 0.7396,8.635588 1.6449,12.792278 1.8022,20.55093 1.0101,41.26191 -3.3232,61.60544 -4.5933,16.65761 -8.9296,31.46426 -20.3942,46.30438 -12.6502,16.37482 -30.6015,28.43834 -51.5552,37.94494 -8.0683,3.27898 -15.937,6.88101 -24.2049,9.83689 -37.069,13.25264 -77.1523,19.679 -117.8587,18.04514 -5.6116,-0.0413 -15.642,-0.18565 -21.7414,-0.0109 -2.6955,0.077 -7.5288,-0.11074 -9.8599,1.76591 -1.0828,0.87167 -3.3353,2.5602 -2.0761,3.27039 12.5119,7.05623 26.6837,12.08784 40.0255,18.13175 7.6255,2.24918 14.521,5.68665 21.9523,8.28837 11.7303,4.60283 41.4864,17.43806 -8.1942,-4.85482 -4.0998,-1.83961 8.1535,3.7466 12.1184,5.76057 13.4232,6.81847 12.8423,6.92832 25.3931,15.04802 9.7274,7.35388 15.6737,11.33855 24.061,19.78482 16.6488,16.7659 27.9746,36.50972 36.9998,56.40892 1.8144,5.40824 4.1147,10.7299 5.443,16.22474 4.0519,16.76126 3.6222,35.64562 -5.1179,51.52494 -1.5411,2.79955 -3.8035,5.31787 -5.7052,7.9768 -2.5255,2.16763 -4.6834,4.64056 -7.5764,6.50288 -12.7398,8.20151 -32.0649,10.63479 -47.9839,10.09337 -5.1556,-0.17537 -10.2498,-0.94916 -15.3746,-1.4237 -27,-4.42557 -53.698,-10.09861 -77.4968,-21.46975 0,0 35.0148,22.01864 35.0148,22.01864 z"
       inkscape:connector-curvature="0" />
    <path
       style="fill:#4d4d4d;fill-opacity:1;stroke-width:0.20000000000000001;stroke-linecap:round;stroke-linejoin:miter;stroke-miterlimit:4;stroke-dasharray:none"
       id="path5787"
       d="m 1524.8872,237.42524 c -10.4204,1.10666 -20.8984,1.69394 -31.387,2.11727 -2.4114,-0.12852 -4.8362,-0.12798 -7.2345,-0.38545 -4.7855,-0.51377 -10.3124,-1.62147 -14.8023,-3.19984 -2.3737,-0.8346 -9.1086,-4.09135 -6.88,-2.98659 27.0771,13.42271 29.1984,15.6949 17.2664,6.56742 -9.6728,-8.44947 -13.5197,-16.9143 -15.61,-28.52282 -1.4036,-12.08683 1.4883,-23.95691 4.157,-35.73077 3.6863,-13.53372 10.192,-26.17536 19.4072,-37.42109 7.1018,-7.38721 16.8138,-12.41067 27.9927,-12.78096 2.6766,-0.0886 5.3473,0.28501 8.021,0.42752 2.8285,0.71163 5.7358,1.21227 8.4855,2.13488 2.8753,0.96481 10.9844,4.88183 8.3302,3.50763 -6.8496,-3.54635 -13.5237,-7.52109 -20.9344,-10.03335 -2.9053,-0.98492 4.8958,3.41667 7.1133,5.34791 5.1537,4.48834 7.0937,7.40244 11.2,12.5591 5.8274,8.83374 9.9482,18.6909 10.6684,28.98844 0.4949,7.07581 -0.3819,10.20528 -1.4565,17.15939 -4.1058,16.21426 -13.3001,30.63351 -25.1201,43.364 -8.9926,7.48084 -19.2576,13.64237 -29.2743,19.98616 -3.5412,2.1284 -1.8204,1.19746 -5.1295,2.83974 0,0 30.214,17.20142 30.214,17.20142 l 0,0 c 3.1958,-2.01658 1.5666,-0.92102 4.8673,-3.31035 9.632,-6.96562 19.912,-13.30466 28.558,-21.26047 11.7005,-13.40844 21.1999,-28.32662 25.5989,-44.95601 1.0104,-6.2172 2.1515,-11.46216 2.0096,-17.78746 -0.2397,-10.69152 -4.1634,-20.94019 -9.8787,-30.24744 -3.6803,-4.8419 -6.5081,-8.95564 -11.0244,-13.27284 -11.9425,-11.41579 -28.9017,-17.74113 -43.8764,-25.12737 -2.7522,-1.35756 -5.7455,-2.32754 -8.7546,-3.15485 -2.963,-0.81464 -6.0633,-1.16847 -9.0949,-1.7527 -2.8977,-0.0331 -5.8043,-0.30207 -8.6933,-0.0989 -12.0599,0.84799 -22.0998,6.59765 -29.5346,14.76358 -9.1386,11.7641 -15.7279,24.77832 -19.7825,38.62191 -3.2385,11.96898 -6.3239,24.00245 -5.3246,36.41443 1.7274,12.92293 5.0393,20.7987 15.1356,30.66818 15.1238,12.74713 6.5643,6.22639 41.3262,23.76755 9.0149,4.549 20.0021,5.29494 30.101,5.57952 10.9329,-0.40208 21.8771,-1.30991 32.8192,-1.03164 0,0 -29.4789,-18.95509 -29.4789,-18.95509 z"
       inkscape:connector-curvature="0" />
    <path
       style="fill:#4d4d4d;fill-opacity:1;stroke-width:0.20000000000000001;stroke-linecap:round;stroke-linejoin:miter;stroke-miterlimit:4;stroke-dasharray:none"
       id="path5789"
       d="m 1685.5644,231.69172 c -13.9915,1.03119 -27.8106,3.35471 -41.7756,4.7321 -6.2388,0.17501 -12.6884,2.13681 -18.7119,-0.25163 -1.7881,-0.70906 -6.6532,-3.65901 -4.9287,-2.83574 37.6944,17.99404 47.0541,27.19803 32.376,13.99314 -9.4092,-9.91104 -12.3961,-22.14 -14.1249,-34.63926 -1.4263,-13.14242 -1.4437,-26.34162 -0.1604,-39.48258 1.5424,-9.57731 2.7113,-19.37666 9.1007,-27.44183 6.6948,-6.6588 15.0532,-11.19282 24.6746,-13.61103 14.7432,-2.65572 29.7921,-1.53749 44.6657,-0.62435 2.42,0.34056 4.9211,0.37538 7.2603,1.02168 1.9585,0.54103 7.2804,3.35073 5.4708,2.49575 -12.6155,-5.95937 -24.621,-13.08655 -37.8872,-17.80924 -2.2396,-0.79724 2.6848,3.59249 3.5529,5.58664 2.859,6.56816 3.2847,12.51757 4.3867,19.46946 2.4054,19.91185 1.5126,39.92065 0.3373,59.86094 -1.0226,14.6282 -1.147,29.31374 -2.9938,43.88508 0,0 43.257,19.92744 43.257,19.92744 l 0,0 c 1.0027,-14.73845 0.8847,-29.53058 2.4586,-44.24549 1.6286,-20.26968 0.4389,-40.5156 -0.6331,-60.79936 -0.3129,-3.55619 -1.277,-24.36666 -4.9029,-26.79851 -22.7036,-15.22739 -35.2987,-26.45321 -59.4425,-28.09101 -15.5459,-0.71309 -31.4431,-1.99334 -46.7262,1.34777 -10.2439,3.34478 -19.0727,8.73967 -26.2524,16.08143 -1.098,1.3959 -2.3441,2.70916 -3.2942,4.18769 -4.9378,7.68498 -4.4892,17.08855 -6.6015,25.48895 -1.2629,13.43377 -1.1126,26.86479 -0.075,40.31789 1.4231,13.05757 3.8297,25.96175 12.6511,36.91716 15.0927,17.62695 4.0928,6.03209 51.5004,30.23851 1.8278,0.93317 3.9023,1.48931 5.9695,1.86291 6.2859,1.13611 12.6273,-0.85496 18.8703,-1.08204 14.2571,-1.58463 28.5771,-4.13835 42.9982,-3.31617 0,0 -41.0192,-26.3863 -41.0192,-26.3863 z"
       inkscape:connector-curvature="0" />
    <path
       style="fill:#4d4d4d;fill-opacity:1;stroke-width:0.20000000000000001;stroke-linecap:round;stroke-linejoin:miter;stroke-miterlimit:4;stroke-dasharray:none"
       id="path5819"
       d="m 1859.3281,233.80775 c -8.1792,5.78017 -17.9967,7.99925 -27.903,9.64199 -10.1722,0.85708 -20.9117,2.8078 -31.051,0.48622 -1.7289,-0.39582 -3.3576,-1.10449 -5.0365,-1.65672 52.933,28.9265 27.2562,16.37826 18.037,4.95543 -6.1266,-7.59104 -9.8775,-15.90761 -13.5563,-24.68245 -4.1936,-13.63266 -8.8473,-28.22653 -6.8286,-42.60301 0.3159,-2.24827 1.0586,-4.42608 1.588,-6.63912 4.3193,-12.02047 13.6303,-20.99167 24.5759,-28.05322 13.3279,-6.99532 28.7038,-7.93453 43.6417,-8.72391 6.4882,-0.16698 13.2288,-0.73643 19.466,1.42031 1.6195,0.56004 6.109,3.00958 4.6022,2.22169 -31.6251,-16.53648 -37.9955,-22.85442 -26.9378,-12.73064 4.279,4.66009 6.5039,10.46322 9.1321,15.9941 0.3614,0.65694 0.7229,1.31387 1.0842,1.9708 0,0 36.6613,15.42883 36.6613,15.42883 l 0,0 c -0.3733,-0.67326 -0.7465,-1.34651 -1.1199,-2.01978 -3.5893,-5.40376 -5.1141,-11.88789 -9.3178,-17.00236 -11.3404,-14.17129 -3.0358,-4.72009 -40.3578,-24.35644 -7.2035,-3.78995 -16.6736,-1.77842 -24.3885,-1.7777 -15.5796,1.06765 -31.5258,2.33923 -45.1747,10.13689 -11.6191,7.74731 -21.243,17.60075 -25.7912,30.49238 -0.5552,2.41755 -1.3179,4.8016 -1.6657,7.25267 -2.1143,14.89605 2.7052,30.01751 6.8342,44.2153 3.3437,8.92273 6.7565,17.40875 12.3053,25.3879 1.1732,1.68719 7.1957,9.53572 9.4788,10.86557 12.6232,7.35263 25.8732,13.72403 38.8099,20.58605 12.2318,2.58908 24.6162,1.30058 36.9409,-0.35179 10.5034,-1.93572 20.5865,-4.89745 29.874,-9.98772 0,0 -33.9027,-20.47127 -33.9027,-20.47127 z"
       inkscape:connector-curvature="0" />
    <path
       style="fill:#4d4d4d;fill-opacity:1;stroke-width:0.20000000000000001;stroke-linecap:round;stroke-linejoin:miter;stroke-miterlimit:4;stroke-dasharray:none"
       id="path5821"
       d="m 1883.269,263.25927 c -0.829,-13.47254 -0.9337,-27.02177 -0.6227,-40.52426 -0.049,-15.22644 2.7305,-29.83422 6.1005,-44.32025 2.6039,-9.97555 7.2952,-19.01655 12.8356,-26.80804 3.5005,-4.83422 6.5377,-10.09121 9.6154,-15.33267 1.5541,-1.85094 0.7829,-0.87567 2.3073,-2.93383 0,0 -26.8674,-20.56497 -26.8674,-20.56497 l 0,0 c -1.5577,2.16192 -0.7442,1.0182 -2.4365,3.43556 -2.8346,5.29826 -5.7205,10.54234 -9.1179,15.31671 -5.418,8.61007 -10.167,18.16355 -12.9017,28.64364 -3.2212,14.88203 -6.0606,29.86275 -5.9787,45.42182 -0.4747,13.18038 -0.2342,26.40132 -1.1328,39.55334 0,0 28.1989,18.11295 28.1989,18.11295 z"
       inkscape:connector-curvature="0" />
    <path
       style="fill:#4d4d4d;fill-opacity:1;stroke-width:0.20000000000000001;stroke-linecap:round;stroke-linejoin:miter;stroke-miterlimit:4;stroke-dasharray:none"
       id="path5827"
       d="m 1955.0136,252.39843 c -1.1561,-13.89208 -1.2177,-27.82638 -1.1436,-41.74575 0.044,-14.40457 0.1363,-28.80961 0.449,-43.21201 0.2001,-6.86302 0.3681,-13.72761 0.635,-20.58895 0.075,-3.65862 0.091,-7.31616 0.046,-10.97511 0.016,-0.58047 0.02,-1.16094 0.028,-1.74139 0,0 -39.6401,-17.11232 -39.6401,-17.11232 l 0,0 c 0.016,0.58835 0.02,1.17668 0.027,1.76506 -0.047,3.67202 -0.028,7.34268 0.046,11.01442 0.2652,7.04422 0.4353,14.09148 0.6352,21.13731 0.3105,14.53166 0.4051,29.06586 0.4491,43.59967 0.072,13.58972 0.047,27.19792 -1.1437,40.75834 0,0 39.6132,17.10073 39.6132,17.10073 z"
       inkscape:connector-curvature="0" />
    <path
       style="fill:#4d4d4d;fill-opacity:1;stroke-width:0.20000000000000001;stroke-linecap:round;stroke-linejoin:miter;stroke-miterlimit:4;stroke-dasharray:none"
       id="path5829"
       d="m 1933.7216,213.84105 c 10.6916,8.48382 21.4131,16.88918 33.4494,23.98881 28.8585,16.21633 47.8133,26.78254 79.9243,27.89496 2.0752,-0.2746 4.2296,-0.27018 6.2257,-0.82385 12.9627,-3.59574 14.7033,-16.06036 16.2741,-25.74589 1.6727,-22.10293 1.3549,-44.27766 1.4847,-66.416 0.3231,-15.06092 -0.4296,-30.11739 -1.2056,-45.16006 0,0 -38.7379,-16.43597 -38.7379,-16.43597 l 0,0 c 1.7125,15.26572 3.9569,30.5283 3.575,45.89849 0.159,21.80411 0.5255,43.70867 -2.3802,65.40722 -2.4175,11.64716 -3.4646,21.00268 -19.7823,21.75539 -7.3804,-0.46196 -14.485,-1.25674 -21.6111,-3.05815 -2.4053,-0.60804 -9.1799,-3.30828 -7.1066,-2.10931 9.6482,5.58011 44.4164,22.24291 22.9733,11.92679 -11.7761,-6.33358 -22.3187,-13.97388 -31.8161,-22.64029 0,0 -41.2667,-14.48214 -41.2667,-14.48214 z"
       inkscape:connector-curvature="0" />
    <path
       style="fill:#4d4d4d;fill-opacity:1;stroke-width:0.20000000000000001;stroke-linecap:round;stroke-linejoin:miter;stroke-miterlimit:4;stroke-dasharray:none"
       id="path5849"
       d="m 1738.2343,159.17622 c -0.2649,-5.79428 -0.772,-11.63218 -0.025,-17.40965 0.5277,-4.92166 2.5847,-8.76679 6.9135,-12.0305 2.0467,-2.49356 5.2012,-3.8553 7.8583,-5.69163 1.0045,-0.69417 4.3843,-3.86822 5.1993,-4.61891 7.4635,-5.75276 12.3488,-13.09811 15.4644,-21.131838 2.5157,-7.506882 3.0914,-15.338476 3.4504,-23.097475 0.4086,-7.705404 -4.3223,-12.707272 -10.6337,-17.688966 -20.5604,-13.069567 -42.963,-24.633059 -67.2109,-32.061829 -11.5861,-4.077108 -23.931,-5.575092 -36.3368,-6.408371 -11.7915,-0.718308 -23.6244,-0.55766 -35.4366,-0.480855 -18.509,-0.330043 -36.6329,2.940244 -54.7029,5.854495 -12.2683,2.031367 -24.5644,5.024813 -34.2995,11.916165 -3.8439,3.829094 -6.4351,9.687688 -4.7011,14.763806 0.4039,1.182603 1.2442,2.225215 1.8662,3.337839 19.4311,18.595693 47.9151,25.268179 74.9605,30.632473 5.9473,1.169771 11.9737,1.999416 17.9924,2.848102 0,0 -34.8371,-22.153361 -34.8371,-22.153361 l 0,0 c -5.7258,-0.709589 -11.441,-1.485736 -17.0766,-2.618425 -7.475,-1.530148 -15.0454,-3.008977 -22.2646,-5.296503 -2.2545,-0.714393 -8.6621,-3.511896 -6.6384,-2.407724 63.1677,34.46616 38.2185,19.910509 28.059,13.941554 -1.3628,-1.25169 -3.2794,-2.563762 -3.5888,-4.430867 -0.5027,-3.032986 1.3979,-6.618325 3.5611,-8.883301 8.8267,-6.508945 20.1671,-9.26673 31.425,-11.282453 18.1449,-3.043651 36.4434,-5.698547 55.0323,-4.808324 11.7878,0.07462 23.592,0.0757 35.3528,0.843261 12.2002,1.079628 24.1971,3.051332 35.5491,7.148466 14.7977,5.003807 38.5044,17.037668 -20.2088,-11.528759 -3.0674,-1.492449 6.106,3.029832 9.0934,4.634601 1.3973,0.75069 2.6661,1.661109 3.9991,2.491669 5.7202,4.107462 11.6153,7.790537 11.9683,14.67208 -0.06,7.479909 -0.2665,15.026694 -2.5034,22.311044 -2.842,7.609923 -7.4849,14.323642 -14.8289,19.485936 -4.2665,3.52994 -9.3581,6.20061 -13.2787,10.05345 -4.6352,4.05916 -7.6074,8.64749 -8.2505,14.37241 -0.7435,5.81787 -0.1464,11.69416 -0.7461,17.53069 0,0 39.8239,17.1917 39.8239,17.1917 z"
       inkscape:connector-curvature="0" />
  </g>
</svg>
