<!-- Created with Inkscape (http://www.inkscape.org/) -->
<svg xmlns:inkscape="http://www.inkscape.org/namespaces/inkscape" xmlns:rdf="http://www.w3.org/1999/02/22-rdf-syntax-ns#" xmlns="http://www.w3.org/2000/svg" sodipodi:docname="RestFrames_logo.svg" xmlns:sodipodi="http://sodipodi.sourceforge.net/DTD/sodipodi-0.dtd" version="1.2" xmlns:cc="http://creativecommons.org/ns#" xmlns:xlink="http://www.w3.org/1999/xlink" inkscape:version="0.48.5 r10040" viewBox="0 0 2307.1 451.36" xmlns:dc="http://purl.org/dc/elements/1.1/">
 <sodipodi:namedview bordercolor="#666666" inkscape:pageshadow="2" guidetolerance="10" pagecolor="#ffffff" gridtolerance="10" inkscape:window-maximized="0" inkscape:zoom="0.14433767" objecttolerance="10" borderopacity="1" inkscape:current-layer="svg5851" inkscape:cx="1153.545" inkscape:cy="225.67999" inkscape:window-y="0" inkscape:window-x="0" inkscape:window-width="640" showgrid="false" inkscape:pageopacity="0" inkscape:window-height="480"/>
 <defs>
  <radialGradient id="radialGradient7341" gradientUnits="userSpaceOnUse" cy="528.5" cx="414.29" gradientTransform="matrix(1,0,0,1.028169,0,-14.887387)" r="202.86">
   <stop stop-color="#000" offset="0"/>
   <stop stop-color="#000" stop-opacity="0" offset="1"/>
  </radialGradient>
  <radialGradient id="radialGradient7433" gradientUnits="userSpaceOnUse" cy="528.5" cx="414.29" gradientTransform="matrix(1,0,0,1.0280997,0,-14.850783)" r="203.36">
   <stop stop-color="#000" offset="0"/>
   <stop stop-color="#000" stop-opacity="0" offset="1"/>
  </radialGradient>
  <linearGradient id="linearGradient7443" y2="528.5" gradientUnits="userSpaceOnUse" x2="617.24" y1="528.5" x1="211.33">
   <stop stop-color="#000" offset="0"/>
   <stop stop-color="#000" stop-opacity="0" offset="1"/>
  </linearGradient>
  <linearGradient id="linearGradient7463" y2="528.5" gradientUnits="userSpaceOnUse" x2="617.64" y1="528.5" x1="210.93">
   <stop stop-color="#A00" offset="0"/>
   <stop stop-color="#A00" stop-opacity="0" offset="1"/>
  </linearGradient>
 </defs>
 <metadata>
  <rdf:RDF>
   <cc:Work rdf:about="">
    <dc:format>image/svg+xml</dc:format>
    <dc:type rdf:resource="http://purl.org/dc/dcmitype/StillImage"/>
    <dc:title/>
   </cc:Work>
  </rdf:RDF>
 </metadata>
 <g transform="translate(0,-600.98702)">
  <path d="m617.14,528.5a202.86,208.57,0,1,1,-0.0708,-5.5116" fill-rule="nonzero" transform="matrix(1,0,0,0.99315068,1682.4834,293.17881)" stroke="url(#radialGradient7433)" fill="url(#linearGradient7463)"/>
  <flowRoot style="letter-spacing:0px;word-spacing:0px;" font-weight="normal" xml:space="preserve" font-size="144px" line-height="125%" font-style="normal" font-family="Sans" fill="#000000"><flowRegion><rect height="637.14" width="2140" y="242.79" x="188.57"/></flowRegion><flowPara/></flowRoot>
  <flowRoot style="letter-spacing:0px;word-spacing:0px;" font-weight="normal" xml:space="preserve" transform="translate(0,20.987528)" line-height="125%" font-size="40px" font-style="normal" font-family="Sans" fill="#000000"><flowRegion><rect y="357.07" width="734.29" x="217.14" height="74.286"/></flowRegion><flowPara/></flowRoot>
  <path opacity="0.25" stroke-linejoin="miter" d="m617.14,528.5a202.86,208.57,0,1,1,-0.0708,-5.5116" transform="matrix(1,0,0,0.99315068,1524.0968,296.03596)" stroke-linecap="round" stroke-miterlimit="4" stroke-dasharray="none" stroke-width="0.2" fill="#217821"/>
  <path opacity="0.35" stroke-linejoin="miter" d="m617.14,528.5a202.86,208.57,0,1,1,-0.0708,-5.5116" transform="matrix(1,0,0,0.99315068,1365.7102,301.75024)" stroke-linecap="round" stroke-miterlimit="4" stroke-dasharray="none" stroke-width="0.2" fill="#217821"/>
  <path opacity="0.45" stroke-linejoin="miter" d="m617.14,528.5a202.86,208.57,0,1,1,-0.0708,-5.5116" transform="matrix(1,0,0,0.99315068,1207.3236,301.75024)" stroke-linecap="round" stroke-miterlimit="4" stroke-dasharray="none" stroke-width="0.2" fill="#217821"/>
  <path opacity="0.55" stroke-linejoin="miter" d="m617.14,528.5a202.86,208.57,0,1,1,-0.0708,-5.5116" transform="matrix(1,0,0,0.99315068,1048.937,304.60739)" stroke-linecap="round" stroke-miterlimit="4" stroke-dasharray="none" stroke-width="0.2" fill="#217821"/>
  <path opacity="0.65" stroke-linejoin="miter" d="m617.14,528.5a202.86,208.57,0,1,1,-0.0708,-5.5116" transform="matrix(1,0,0,0.99315068,890.5504,298.8931)" stroke-linecap="round" stroke-miterlimit="4" stroke-dasharray="none" stroke-width="0.2" fill="#217821"/>
  <path opacity="0.75" stroke-linejoin="miter" d="m617.14,528.5a202.86,208.57,0,1,1,-0.0708,-5.5116" transform="matrix(1,0,0,0.99315068,732.16372,301.75024)" stroke-linecap="round" stroke-miterlimit="4" stroke-dasharray="none" stroke-width="0.2" fill="#217821"/>
  <path opacity="0.15199998" stroke-linejoin="miter" d="m617.14,528.5a202.86,208.57,0,1,1,-0.0708,-5.5116" transform="matrix(1,0,0,0.99315068,415.39061,304.60739)" stroke-linecap="round" stroke-miterlimit="4" stroke-dasharray="none" stroke-width="0.2" fill="#04A"/>
  <path opacity="0.35" stroke-linejoin="miter" d="m617.14,528.5a202.86,208.57,0,1,1,-0.0708,-5.5116" transform="matrix(1,0,0,0.99315068,257.00391,304.60739)" stroke-linecap="round" stroke-miterlimit="4" stroke-dasharray="none" stroke-width="0.2" fill="#04A"/>
  <path opacity="0.55" stroke-linejoin="miter" d="m617.14,528.5a202.86,208.57,0,1,1,-0.0708,-5.5116" transform="matrix(1,0,0,0.99315068,98.617337,304.60739)" stroke-linecap="round" stroke-miterlimit="4" stroke-dasharray="none" stroke-width="0.2" fill="#04A"/>
  <path opacity="0.75" stroke-linejoin="miter" d="m617.14,528.5a202.86,208.57,0,1,1,-0.0708,-5.5116" transform="matrix(1,0,0,0.99315068,-59.769271,307.46453)" stroke-linecap="round" stroke-miterlimit="4" stroke-dasharray="none" stroke-width="0.2" fill="#04A"/>
  <rect stroke-linejoin="miter" stroke-dasharray="none" ry="0" height="31.429" width="1605.7" stroke-linecap="round" stroke-miterlimit="4" y="804.92" x="346" stroke-width="0.2" fill="#333"/>
  <path stroke-linejoin="miter" d="m617.14,528.5a202.86,208.57,0,1,1,-0.0708,-5.5116" transform="matrix(1,0,0,0.99315068,-205.42857,305.0151)" stroke="url(#radialGradient7341)" stroke-linecap="round" stroke-miterlimit="4" stroke-dasharray="none" stroke-width="0.19968504" fill="#003380"/>
  <path stroke-linejoin="miter" d="m617.14,528.5a202.86,208.57,0,1,1,-0.0708,-5.5116" transform="matrix(1,0,0,0.99315068,573.77721,301.74972)" stroke="url(#linearGradient7443)" stroke-linecap="round" stroke-miterlimit="4" stroke-dasharray="none" stroke-width="0.2" fill="#165016"/>
  <flowRoot style="letter-spacing:0px;word-spacing:0px;" font-weight="normal" xml:space="preserve" transform="translate(53.13065,310.11443)" font-style="normal" font-stretch="normal" line-height="162.99999952%" font-size="400px" font-variant="normal" font-family="&apos;.Baghdad PUA&apos;" fill="#ffffff"><flowRegion><rect height="745.71" width="2808.6" y="117.07" x="11.429" fill="#FFF"/></flowRegion><flowPara style="text-anchor:start;text-align:justify;" font-weight="normal" font-size="350px" font-stretch="normal" font-variant="normal" font-style="normal" font-family="MT Extra" line-height="162.99999952%" fill="#ffffff"><flowSpan font-weight="normal" font-size="400px" font-style="normal" font-stretch="normal" font-variant="normal" font-family="MT Extra" fill="#ffffff">R   </flowSpan></flowPara></flowRoot>
  <flowRoot style="letter-spacing:0px;word-spacing:0px;" font-weight="normal" xml:space="preserve" transform="translate(1083.7021,348.97157)" font-style="normal" font-stretch="normal" line-height="162.99999952%" font-size="400px" font-variant="normal" font-family="&apos;.Baghdad PUA&apos;" fill="#ffffff"><flowRegion><rect height="745.71" width="2808.6" y="117.07" x="11.429" fill="#FFF"/></flowRegion><flowPara style="text-anchor:start;text-align:justify;" font-weight="normal" font-size="350px" font-stretch="normal" font-variant="normal" font-style="normal" font-family="MT Extra" line-height="162.99999952%" fill="#ffffff">rames</flowPara></flowRoot>
  <flowRoot style="letter-spacing:0px;word-spacing:0px;" font-weight="normal" xml:space="preserve" transform="translate(854.5592,310.11443)" font-style="normal" font-stretch="normal" line-height="162.99999952%" font-size="400px" font-variant="normal" font-family="&apos;.Baghdad PUA&apos;" fill="#ffffff"><flowRegion><rect height="745.71" width="2808.6" y="117.07" x="11.429" fill="#FFF"/></flowRegion><flowPara style="text-anchor:start;text-align:justify;" font-weight="normal" font-size="350px" font-stretch="normal" font-variant="normal" font-style="normal" font-family="MT Extra" line-height="162.99999952%" fill="#ffffff"><flowSpan font-weight="normal" font-size="400px" font-style="normal" font-stretch="normal" font-variant="normal" font-family="MT Extra" fill="#ffffff">F</flowSpan></flowPara></flowRoot>
  <flowRoot style="letter-spacing:0px;word-spacing:0px;" font-weight="normal" xml:space="preserve" transform="translate(312.27351,346.97157)" font-style="normal" font-stretch="normal" line-height="162.99999952%" font-size="400px" font-variant="normal" font-family="&apos;.Baghdad PUA&apos;" fill="#ffffff"><flowRegion><rect height="745.71" width="2808.6" y="117.07" x="11.429" fill="#FFF"/></flowRegion><flowPara style="text-anchor:start;text-align:justify;" font-weight="normal" font-size="350px" font-stretch="normal" font-variant="normal" font-style="normal" font-family="MT Extra" line-height="162.99999952%" fill="#ffffff">est</flowPara></flowRoot>
 </g>
</svg>
